<svg width="69" height="49" viewBox="0 0 69 49" fill="none" xmlns="http://www.w3.org/2000/svg">
<path d="M34.4999 28.0039V44.4453H39.869C39.9633 44.4238 40.0361 44.3483 40.055 44.2566C40.3838 42.3834 42.0145 40.9576 43.9848 40.9576C45.955 40.9576 47.5857 42.3834 47.9118 44.2566C47.9334 44.3752 48.1274 44.4453 48.246 44.4453H50.9414V28.0039H34.4999ZM36.1171 11.9372V1.32032H30.1874V6.55461L23.3899 0.341919L0.555176 20.7939L4.02674 24.7075L7.54682 21.5271V48.4883H11.8593V41.4805H14.5546V43.6367H16.1718V41.4805H18.8671V48.4883H21.2929V41.4805H23.9882V43.6367H25.6054V41.4805H28.3007V48.4883H39.082V46.0625H32.8828V26.3867H39.082V21.7238L42.4835 24.9043L45.9847 21.0877L36.1171 11.9372ZM28.3007 39.0547H21.2929V32.0469H23.9882V34.2031H25.6054V32.0469H28.3007V39.0547ZM68.1914 42.2891H67.6523V39.3242C67.6523 38.3674 67.0027 37.4375 66.0351 37.4375H61.7226C61.6579 37.4375 61.4585 37.3351 61.4153 37.292L56.7147 32.2221C56.4991 32.0038 56.1083 31.7881 55.7929 31.7773H52.0195V44.4453H58.7578C58.8764 44.4453 58.9464 44.3645 58.968 44.2566C59.2941 42.3834 60.9275 40.9576 62.8951 40.9576C64.8653 40.9576 66.4987 42.3834 66.8248 44.2566C66.8464 44.3752 66.9946 44.4453 67.1132 44.4453H67.3828C68.0027 44.4453 68.4609 43.9763 68.4609 43.3672V42.5586C68.4609 42.44 68.3207 42.2891 68.1914 42.2891ZM59.2294 37.5211H53.4776C53.3456 37.5211 53.2378 37.4106 53.2378 37.2812V33.408C53.2378 33.2759 53.3456 33.1681 53.4776 33.1681H55.7255C55.7902 33.1681 55.8549 33.2005 55.9115 33.2436L59.4154 37.106C59.5448 37.2704 59.437 37.5211 59.2294 37.5211ZM62.8951 41.9818C61.2428 41.9818 59.9033 43.3214 59.9033 44.9736C59.9033 46.6285 61.2428 47.9654 62.8951 47.9654C64.55 47.9654 65.8896 46.6285 65.8896 44.9736C65.8896 43.3214 64.55 41.9818 62.8951 41.9818ZM62.8951 46.1191C62.2671 46.1191 61.7496 45.6016 61.7496 44.9736C61.7496 44.3456 62.2671 43.8281 62.8951 43.8281C63.5258 43.8281 64.0433 44.3456 64.0433 44.9736C64.0433 45.6016 63.5258 46.1191 62.8951 46.1191ZM43.9848 41.9818C42.3298 41.9818 40.993 43.3214 40.993 44.9736C40.993 46.6285 42.3298 47.9654 43.9848 47.9654C45.6397 47.9654 46.9765 46.6285 46.9765 44.9736C46.9765 43.3214 45.6397 41.9818 43.9848 41.9818ZM43.9848 46.1191C43.3567 46.1191 42.8392 45.6016 42.8392 44.9736C42.8392 44.3456 43.3567 43.8281 43.9848 43.8281C44.6128 43.8281 45.1303 44.3456 45.1303 44.9736C45.1303 45.6016 44.6128 46.1191 43.9848 46.1191Z" fill="black"/>
</svg>
