<?xml version="1.0" encoding="UTF-8"?>
<!-- Generator: visioncortex VTracer 0.6.3 -->
<svg version="1.1" xmlns="http://www.w3.org/2000/svg" width="1280" height="1280">
<path d="M0 0 C52.69 -0.03 105.38 -0.07 158.07 -0.08 C158.85 -0.08 159.63 -0.09 160.43 -0.09 C177.38 -0.09 194.32 -0.1 211.27 -0.1 C219.58 -0.1 227.89 -0.11 236.2 -0.11 C237.03 -0.11 237.85 -0.11 238.71 -0.11 C265.51 -0.12 292.32 -0.13 319.13 -0.15 C346.67 -0.17 374.22 -0.18 401.77 -0.19 C405.66 -0.19 409.55 -0.19 413.44 -0.19 C414.59 -0.19 414.59 -0.19 415.76 -0.19 C428.09 -0.19 440.41 -0.2 452.74 -0.21 C465.13 -0.23 477.52 -0.23 489.92 -0.23 C496.63 -0.23 503.35 -0.23 510.06 -0.24 C516.21 -0.25 522.35 -0.25 528.5 -0.24 C530.72 -0.24 532.95 -0.24 535.17 -0.25 C538.2 -0.26 541.22 -0.25 544.24 -0.25 C545.11 -0.25 545.97 -0.26 546.86 -0.26 C557.19 -0.21 565.72 1.81 573.64 8.56 C575 10 575 10 575 12 C575.99 12.33 576.98 12.66 578 13 C578.1 92.11 578.2 171.22 578.25 250.34 C578.25 251.51 578.26 252.68 578.26 253.88 C578.27 279.32 578.29 304.75 578.31 330.18 C578.31 342.66 578.32 355.13 578.33 367.6 C578.33 368.84 578.33 370.08 578.33 371.36 C578.36 411.61 578.4 451.86 578.46 492.11 C578.51 533.46 578.55 574.81 578.56 616.17 C578.57 622 578.57 627.84 578.57 633.68 C578.57 634.83 578.57 635.98 578.57 637.16 C578.58 655.67 578.61 674.19 578.64 692.7 C578.68 711.3 578.69 729.9 578.68 748.5 C578.68 759.56 578.69 770.62 578.72 781.67 C578.75 789.06 578.75 796.44 578.73 803.82 C578.72 808.03 578.72 812.24 578.75 816.45 C578.77 820.28 578.77 824.1 578.74 827.93 C578.74 829.96 578.76 831.99 578.79 834.01 C578.71 840.72 578.3 845.38 573.66 850.45 C573.11 850.96 572.56 851.47 572 852 C571.14 852.81 570.28 853.63 569.4 854.47 C564.19 856.81 559.26 856.54 553.61 856.49 C552.34 856.5 551.08 856.5 549.77 856.51 C546.25 856.52 542.73 856.51 539.2 856.49 C535.37 856.48 531.54 856.48 527.71 856.49 C520.99 856.5 514.28 856.49 507.56 856.48 C497.58 856.45 487.59 856.45 477.6 856.45 C460.81 856.46 444.01 856.45 427.21 856.42 C410.57 856.4 393.94 856.38 377.3 856.38 C376.27 856.38 375.24 856.38 374.17 856.38 C368.92 856.38 363.67 856.38 358.42 856.37 C321.22 856.37 284.02 856.34 246.82 856.3 C210.68 856.27 174.54 856.24 138.4 856.22 C137.28 856.22 136.17 856.22 135.02 856.22 C123.84 856.21 112.65 856.21 101.47 856.2 C78.68 856.19 55.9 856.18 33.11 856.17 C32.06 856.17 31.01 856.17 29.94 856.17 C-40.04 856.13 -110.02 856.07 -180 856 C-180 855.01 -180 854.02 -180 853 C-180.72 852.86 -181.44 852.71 -182.19 852.56 C-186.42 850.21 -188.16 846.39 -190 842 C-190 841.01 -190 840.02 -190 839 C-190.66 839 -191.32 839 -192 839 C-191.67 838.01 -191.34 837.02 -191 836 C-190.91 834.08 -190.88 832.17 -190.88 830.25 C-190.88 829.04 -190.88 827.84 -190.88 826.59 C-190.88 825.25 -190.88 823.9 -190.89 822.56 C-190.89 821.13 -190.89 819.71 -190.89 818.29 C-190.89 814.36 -190.89 810.44 -190.9 806.52 C-190.9 802.29 -190.91 798.06 -190.91 793.84 C-190.91 786.51 -190.92 779.18 -190.92 771.85 C-190.94 761.24 -190.94 750.64 -190.95 740.03 C-190.95 722.82 -190.97 705.6 -190.98 688.39 C-190.98 687.36 -190.98 686.32 -190.98 685.26 C-190.99 676.9 -191 668.54 -191 660.17 C-191.01 652.87 -191.01 645.57 -191.02 638.27 C-191.02 637.24 -191.02 636.21 -191.02 635.15 C-191.04 618.01 -191.05 600.86 -191.05 583.72 C-191.06 573.14 -191.07 562.56 -191.08 551.98 C-191.09 544.73 -191.09 537.48 -191.09 530.23 C-191.1 526.05 -191.1 521.87 -191.11 517.69 C-191.11 513.85 -191.11 510.02 -191.11 506.19 C-191.11 504.81 -191.12 503.42 -191.12 502.04 C-191.17 482.1 -191.17 482.1 -185.12 475.7 C-181.76 473.01 -178.16 471.91 -174 471 C-174 470.67 -174 470.34 -174 470 C-123.18 470 -72.36 470 -20 470 C-20.02 456.21 -20.04 442.43 -20.06 428.22 C-20.13 384.14 -20.17 340.06 -20.2 295.98 C-20.21 289.14 -20.21 282.29 -20.22 275.45 C-20.22 274.77 -20.22 274.09 -20.22 273.39 C-20.24 251.3 -20.27 229.22 -20.31 207.14 C-20.34 183.81 -20.37 160.48 -20.38 137.15 C-20.38 123.17 -20.4 109.19 -20.43 95.21 C-20.45 85.63 -20.46 76.05 -20.45 66.47 C-20.45 60.94 -20.46 55.41 -20.48 49.88 C-20.5 44.82 -20.5 39.76 -20.48 34.7 C-20.48 32.86 -20.49 31.03 -20.5 29.2 C-20.52 26.71 -20.51 24.22 -20.49 21.74 C-20.5 21.02 -20.51 20.3 -20.52 19.56 C-20.46 14.74 -19.28 12.47 -16 9 C-15.29 7.69 -14.61 6.36 -14 5 C-13.01 5 -12.02 5 -11 5 C-10.67 4.34 -10.34 3.68 -10 3 C-7.68 2.61 -5.38 2.49 -3.03 2.34 C-2.36 2.23 -1.69 2.12 -1 2 C-0.67 1.34 -0.34 0.68 0 0 Z M27 45 C27 45.33 27 45.66 27 46 C81.12 46 135.24 46 191 46 C191 45.67 191 45.34 191 45 C136.88 45 82.76 45 27 45 Z M239 45 C239 45.33 239 45.66 239 46 C265.07 46 291.14 46 318 46 C318 45.67 318 45.34 318 45 C291.93 45 265.86 45 239 45 Z M365 46 C365 47.19 365 47.19 365 48.4 C364.96 67.67 364.9 86.94 364.82 106.21 C364.78 115.53 364.74 124.85 364.73 134.17 C364.72 142.3 364.69 150.42 364.65 158.55 C364.62 162.85 364.61 167.15 364.61 171.45 C364.61 175.5 364.59 179.55 364.56 183.6 C364.55 185.09 364.55 186.57 364.55 188.05 C364.59 197.5 364.2 204.03 357.94 211.44 C354.5 214.21 351.37 214.14 347.11 214.19 C345.87 214.21 344.64 214.23 343.38 214.24 C342.01 214.26 340.64 214.27 339.28 214.28 C337.84 214.3 336.4 214.32 334.96 214.34 C330.24 214.4 325.52 214.45 320.8 214.49 C319.17 214.51 317.54 214.53 315.92 214.54 C309.15 214.61 302.38 214.67 295.62 214.73 C285.92 214.82 276.23 214.91 266.54 215.04 C259.72 215.12 252.9 215.19 246.08 215.24 C242.01 215.27 237.94 215.31 233.87 215.37 C230.04 215.43 226.21 215.46 222.38 215.48 C220.97 215.49 219.57 215.5 218.17 215.53 C210.04 215.68 205.13 215.54 199 210 C198.34 210 197.68 210 197 210 C196.9 209.17 196.79 208.35 196.69 207.5 C196.13 203.95 196.13 203.95 194.48 200.69 C192.13 194.48 192.56 187.96 192.57 181.41 C192.56 179.94 192.55 178.48 192.54 177.01 C192.51 173.04 192.5 169.07 192.49 165.1 C192.48 160.95 192.46 156.79 192.43 152.64 C192.39 144.78 192.36 136.92 192.34 129.06 C192.31 120.11 192.27 111.16 192.22 102.21 C192.13 83.81 192.06 65.4 192 47 C170.24 46.85 148.49 46.7 126.73 46.56 C116.63 46.49 106.53 46.42 96.43 46.35 C87.62 46.29 78.82 46.23 70.02 46.17 C65.36 46.15 60.7 46.11 56.03 46.08 C51.65 46.05 47.27 46.02 42.88 45.99 C41.27 45.98 39.65 45.97 38.04 45.96 C35.85 45.94 33.65 45.93 31.46 45.92 C30.23 45.91 29 45.9 27.73 45.89 C25.09 45.69 25.09 45.69 24 47 C23.9 49.24 23.88 51.49 23.88 53.73 C23.88 54.44 23.87 55.16 23.87 55.9 C23.87 58.32 23.88 60.75 23.88 63.18 C23.88 64.92 23.88 66.66 23.88 68.4 C23.87 73.22 23.88 78.04 23.88 82.86 C23.89 88.12 23.89 93.39 23.89 98.65 C23.89 108.88 23.89 119.11 23.9 129.34 C23.9 141.17 23.9 153 23.91 164.82 C23.91 196.07 23.92 227.32 23.94 258.56 C23.96 328.34 23.98 398.11 24 470 C192.63 470 361.26 470 535 470 C535.06 400.25 535.12 330.49 535.19 258.62 C535.21 236.56 535.24 214.49 535.27 191.76 C535.28 172.07 535.28 172.07 535.29 152.37 C535.29 143.57 535.3 134.76 535.32 125.96 C535.34 115.81 535.34 105.67 535.34 95.53 C535.34 90.33 535.34 85.14 535.36 79.94 C535.37 75.25 535.37 70.57 535.36 65.88 C535.36 64.17 535.37 62.47 535.37 60.77 C535.39 58.46 535.38 56.16 535.37 53.85 C535.37 52.57 535.37 51.28 535.37 49.96 C535.19 48.5 535.19 48.5 535 47 C531.37 44.58 529.71 44.75 525.39 44.75 C524.71 44.75 524.04 44.75 523.34 44.75 C521.08 44.74 518.81 44.75 516.54 44.76 C514.92 44.76 513.3 44.75 511.68 44.75 C507.27 44.75 502.85 44.75 498.44 44.76 C493.83 44.77 489.22 44.77 484.61 44.77 C476.87 44.77 469.13 44.78 461.39 44.79 C452.43 44.81 443.47 44.82 434.51 44.81 C425.9 44.81 417.29 44.82 408.68 44.83 C405.01 44.83 401.35 44.83 397.68 44.83 C393.36 44.83 389.04 44.84 384.73 44.85 C383.14 44.85 381.55 44.85 379.96 44.85 C377.8 44.85 375.64 44.86 373.48 44.87 C371.67 44.87 371.67 44.87 369.81 44.87 C367.05 44.81 367.05 44.81 365 46 Z M237 47 C236.91 48.62 236.9 50.24 236.91 51.86 C236.92 52.91 236.92 53.96 236.93 55.05 C236.94 56.21 236.95 57.37 236.96 58.57 C236.97 59.79 236.98 61.01 236.99 62.26 C237.01 65.61 237.04 68.96 237.07 72.31 C237.1 75.81 237.12 79.3 237.15 82.8 C237.2 88.68 237.25 94.55 237.3 100.43 C237.36 107.23 237.41 114.03 237.46 120.83 C237.5 126.66 237.55 132.49 237.6 138.32 C237.63 141.8 237.65 145.29 237.68 148.78 C237.71 152.66 237.74 156.54 237.78 160.43 C237.79 161.59 237.79 162.76 237.8 163.95 C237.81 165.01 237.82 166.06 237.84 167.14 C237.84 168.06 237.85 168.98 237.86 169.93 C237.77 171.99 237.77 171.99 239 173 C241.53 173.1 244.02 173.13 246.55 173.11 C247.35 173.11 248.16 173.11 248.98 173.11 C251.59 173.11 254.21 173.11 256.82 173.1 C258.42 173.1 260.03 173.1 261.64 173.09 C267.61 173.09 273.59 173.08 279.56 173.06 C292.91 173.04 306.25 173.02 320 173 C320 131.42 320 89.84 320 47 C306.49 46.81 292.98 46.63 279.06 46.44 C274.79 46.38 270.52 46.31 266.12 46.25 C262.3 46.2 262.3 46.2 258.49 46.15 C256.78 46.13 255.08 46.11 253.37 46.08 C250.79 46.04 248.22 46.01 245.64 45.98 C244.88 45.97 244.11 45.95 243.32 45.94 C239.87 45.58 239.87 45.58 237 47 Z M357 205 C358.49 205.99 358.49 205.99 360 207 C360 206.34 360 205.68 360 205 C359.01 205 358.02 205 357 205 Z M352 210 C352 210.99 352 211.98 352 213 C352.66 212.67 353.32 212.34 354 212 C353.34 211.34 352.68 210.68 352 210 Z M-148 517 C-148.3 519.22 -148.3 519.22 -148.23 521.83 C-148.23 522.86 -148.24 523.89 -148.24 524.94 C-148.23 526.08 -148.22 527.22 -148.21 528.39 C-148.21 529.59 -148.21 530.79 -148.2 532.03 C-148.2 535.37 -148.18 538.71 -148.16 542.06 C-148.14 545.66 -148.14 549.26 -148.13 552.86 C-148.11 559.92 -148.08 566.98 -148.05 574.05 C-148.01 582.26 -147.98 590.48 -147.95 598.69 C-147.9 613.34 -147.84 628 -147.78 642.65 C-147.72 656.88 -147.66 671.12 -147.61 685.35 C-147.61 686.23 -147.61 687.1 -147.6 688 C-147.6 688.88 -147.6 689.75 -147.59 690.66 C-147.54 706.84 -147.48 723.02 -147.42 739.21 C-147.39 744.94 -147.37 750.67 -147.35 756.4 C-147.33 763.38 -147.3 770.36 -147.27 777.35 C-147.25 780.91 -147.23 784.48 -147.22 788.04 C-147.21 791.9 -147.19 795.75 -147.17 799.61 C-147.17 800.75 -147.17 801.89 -147.16 803.06 C-147.16 804.08 -147.15 805.11 -147.14 806.17 C-147.14 807.06 -147.14 807.95 -147.13 808.87 C-147.14 811.05 -147.14 811.05 -146 813 C-48.65 813 48.7 813 149 813 C149.98 810.05 150.13 808.14 150.13 805.06 C150.13 804.04 150.14 803.01 150.14 801.95 C150.14 800.82 150.14 799.69 150.13 798.53 C150.14 797.33 150.14 796.13 150.14 794.9 C150.15 791.57 150.15 788.24 150.15 784.91 C150.15 781.32 150.15 777.73 150.16 774.14 C150.16 767.11 150.17 760.08 150.17 753.04 C150.17 747.33 150.17 741.62 150.17 735.9 C150.18 719.72 150.19 703.53 150.19 687.35 C150.19 686.47 150.19 685.6 150.19 684.7 C150.19 683.83 150.19 682.95 150.19 682.05 C150.18 667.88 150.19 653.7 150.21 639.52 C150.22 624.98 150.23 610.44 150.23 595.89 C150.23 587.72 150.23 579.55 150.24 571.38 C150.25 564.43 150.25 557.47 150.25 550.52 C150.24 546.97 150.24 543.42 150.25 539.87 C150.26 536.03 150.25 532.19 150.25 528.34 C150.25 526.65 150.25 526.65 150.26 524.91 C150.26 523.38 150.26 523.38 150.25 521.81 C150.25 520.93 150.25 520.04 150.25 519.12 C150.2 516.78 150.2 516.78 148 515 C145.48 514.8 143.07 514.73 140.55 514.74 C139.79 514.74 139.02 514.73 138.23 514.73 C135.68 514.72 133.14 514.73 130.59 514.73 C128.83 514.73 127.07 514.73 125.3 514.73 C121.6 514.73 117.91 514.73 114.21 514.74 C109.46 514.75 104.71 514.74 99.96 514.73 C96.32 514.72 92.68 514.73 89.03 514.73 C87.28 514.73 85.53 514.73 83.78 514.73 C81.34 514.72 78.89 514.73 76.45 514.74 C75.35 514.74 75.35 514.74 74.24 514.73 C70.17 514.64 70.17 514.64 67 517 C66.7 518.94 66.7 518.94 66.74 521.19 C66.73 522.51 66.73 522.51 66.72 523.85 C66.72 524.82 66.73 525.79 66.73 526.78 C66.72 527.8 66.72 528.82 66.71 529.86 C66.7 532.08 66.7 534.29 66.7 536.51 C66.69 540.02 66.67 543.53 66.65 547.04 C66.6 557.02 66.57 567.01 66.54 576.99 C66.53 583.1 66.5 589.2 66.46 595.3 C66.45 597.62 66.44 599.95 66.44 602.27 C66.44 605.53 66.42 608.79 66.4 612.05 C66.41 613 66.41 613.95 66.41 614.93 C66.34 622.33 65.62 630.47 61.1 636.57 C60.09 637.34 60.09 637.34 59.06 638.12 C58.39 638.66 57.72 639.2 57.04 639.76 C53.75 641.76 50.65 642.12 46.85 642.15 C45.62 642.16 45.62 642.16 44.37 642.17 C43.04 642.17 43.04 642.17 41.68 642.18 C40.26 642.19 40.26 642.19 38.82 642.2 C35.7 642.22 32.57 642.23 29.45 642.24 C27.85 642.24 27.85 642.24 26.22 642.25 C20.57 642.27 14.92 642.29 9.27 642.3 C3.44 642.31 -2.39 642.34 -8.22 642.38 C-12.71 642.41 -17.19 642.41 -21.68 642.42 C-23.83 642.42 -25.98 642.43 -28.13 642.45 C-31.14 642.48 -34.15 642.48 -37.16 642.47 C-38.04 642.48 -38.92 642.5 -39.83 642.51 C-47.2 642.45 -52.27 640.31 -57.88 635.56 C-61.11 631.66 -62.25 628.19 -62.27 623.15 C-62.28 622.21 -62.29 621.26 -62.3 620.28 C-62.3 619.25 -62.3 618.23 -62.3 617.17 C-62.31 616.08 -62.32 614.98 -62.33 613.86 C-62.35 610.26 -62.37 606.65 -62.38 603.05 C-62.4 600.55 -62.41 598.04 -62.43 595.54 C-62.47 589.63 -62.5 583.72 -62.53 577.81 C-62.59 566.59 -62.65 555.37 -62.73 544.14 C-62.75 540.45 -62.77 536.76 -62.79 533.06 C-62.8 530.81 -62.81 528.56 -62.83 526.32 C-62.83 525.28 -62.83 524.24 -62.83 523.18 C-62.84 522.24 -62.85 521.3 -62.86 520.34 C-62.86 519.52 -62.86 518.7 -62.87 517.86 C-62.8 515.98 -62.8 515.98 -64 515 C-66.55 514.89 -69.06 514.85 -71.61 514.85 C-72.41 514.85 -73.2 514.85 -74.02 514.84 C-76.67 514.84 -79.32 514.83 -81.96 514.83 C-83.8 514.83 -85.63 514.83 -87.46 514.82 C-91.31 514.82 -95.15 514.81 -99 514.81 C-103.94 514.81 -108.88 514.8 -113.81 514.78 C-117.6 514.77 -121.38 514.77 -125.17 514.77 C-126.99 514.77 -128.81 514.77 -130.63 514.76 C-133.18 514.75 -135.72 514.75 -138.26 514.76 C-139.02 514.75 -139.78 514.75 -140.56 514.74 C-144.74 514.63 -144.74 514.63 -148 517 Z M-19 517 C-19.29 519.63 -19.38 522.03 -19.34 524.66 C-19.34 525.45 -19.34 526.24 -19.34 527.06 C-19.34 529.68 -19.32 532.3 -19.29 534.91 C-19.29 536.73 -19.28 538.54 -19.28 540.35 C-19.27 545.13 -19.24 549.91 -19.21 554.69 C-19.17 560.42 -19.16 566.14 -19.14 571.87 C-19.11 580.58 -19.05 589.29 -19 598 C-5.47 598 8.06 598 22 598 C22.03 583.45 22.03 583.45 22.05 568.9 C22.05 562.97 22.06 557.04 22.08 551.11 C22.09 546.33 22.09 541.55 22.09 536.77 C22.1 534.95 22.1 533.12 22.11 531.29 C22.11 528.74 22.11 526.19 22.11 523.64 C22.12 522.5 22.12 522.5 22.12 521.33 C22.43 517.87 22.43 517.87 21 515 C18.3 514.89 15.62 514.84 12.91 514.83 C12.1 514.83 11.29 514.83 10.45 514.82 C8.73 514.82 7 514.81 5.28 514.81 C2.64 514.81 0.01 514.79 -2.63 514.78 C-4.3 514.77 -5.98 514.77 -7.65 514.77 C-8.44 514.76 -9.23 514.76 -10.04 514.75 C-13.89 514.76 -15.72 514.81 -19 517 Z M195 516 C194.98 553.55 194.96 591.09 194.95 628.64 C194.95 633.07 194.95 637.5 194.95 641.93 C194.94 642.81 194.94 643.69 194.94 644.6 C194.94 658.89 194.93 673.19 194.92 687.48 C194.91 702.13 194.91 716.79 194.91 731.45 C194.9 740.5 194.9 749.55 194.89 758.6 C194.89 764.8 194.89 770.99 194.89 777.19 C194.89 780.77 194.89 784.35 194.88 787.94 C194.88 791.81 194.88 795.69 194.88 799.56 C194.88 800.7 194.87 801.84 194.87 803.02 C194.87 804.05 194.87 805.08 194.88 806.15 C194.88 807.04 194.88 807.94 194.88 808.86 C194.86 811.05 194.86 811.05 196 813 C239.04 813.02 282.08 813.04 325.13 813.05 C330.2 813.05 335.28 813.05 340.35 813.05 C341.36 813.06 342.38 813.06 343.42 813.06 C359.8 813.06 376.19 813.07 392.57 813.08 C409.37 813.09 426.17 813.09 442.97 813.09 C453.35 813.1 463.72 813.1 474.1 813.11 C481.2 813.11 488.31 813.11 495.41 813.11 C499.52 813.11 503.62 813.11 507.73 813.12 C511.48 813.12 515.23 813.12 518.98 813.12 C521 813.12 523.01 813.12 525.02 813.13 C526.2 813.13 527.38 813.13 528.6 813.12 C530.14 813.12 530.14 813.12 531.71 813.12 C533.96 813.26 533.96 813.26 535 812 C535.1 810.43 535.13 808.85 535.13 807.28 C535.14 806.25 535.14 805.22 535.14 804.16 C535.14 802.44 535.14 802.44 535.14 800.69 C535.14 799.49 535.15 798.29 535.15 797.05 C535.16 793.69 535.16 790.33 535.16 786.97 C535.16 783.36 535.17 779.74 535.18 776.13 C535.19 768.22 535.2 760.31 535.2 752.4 C535.2 747.46 535.21 742.52 535.21 737.59 C535.22 723.94 535.23 710.28 535.24 696.63 C535.24 695.76 535.24 694.88 535.24 693.98 C535.24 693.11 535.24 692.23 535.24 691.33 C535.24 689.55 535.24 687.77 535.24 686 C535.24 685.12 535.24 684.23 535.24 683.33 C535.24 669.04 535.26 654.75 535.29 640.47 C535.31 625.82 535.32 611.16 535.32 596.51 C535.32 588.28 535.33 580.05 535.35 571.81 C535.36 564.8 535.37 557.8 535.36 550.79 C535.36 547.21 535.36 543.63 535.37 540.05 C535.39 536.18 535.38 532.31 535.37 528.43 C535.38 527.29 535.38 526.15 535.39 524.97 C535.38 523.43 535.38 523.43 535.37 521.85 C535.37 520.96 535.37 520.06 535.37 519.14 C535.25 518.43 535.13 517.73 535 517 C531.93 514.95 531.32 514.75 527.86 514.75 C526.59 514.75 526.59 514.75 525.3 514.74 C524.38 514.75 523.46 514.75 522.51 514.76 C521.54 514.76 520.57 514.75 519.56 514.75 C516.34 514.75 513.12 514.76 509.9 514.77 C507.67 514.77 505.44 514.77 503.2 514.77 C498.52 514.77 493.84 514.78 489.16 514.79 C483.15 514.81 477.14 514.82 471.12 514.81 C466.51 514.81 461.9 514.82 457.29 514.83 C455.07 514.83 452.86 514.83 450.64 514.83 C447.55 514.84 444.45 514.84 441.36 514.85 C440.44 514.85 439.51 514.85 438.56 514.85 C437.72 514.86 436.88 514.86 436.02 514.87 C435.29 514.87 434.55 514.87 433.8 514.87 C431.9 514.89 431.9 514.89 430 516 C429.99 517.98 429.99 517.98 429.98 519.99 C429.9 532.39 429.81 544.8 429.71 557.2 C429.66 563.58 429.62 569.96 429.58 576.33 C429.54 582.49 429.49 588.64 429.44 594.79 C429.42 597.14 429.41 599.49 429.4 601.84 C429.38 605.13 429.35 608.41 429.32 611.7 C429.32 613.16 429.32 613.16 429.31 614.65 C429.26 619.26 429.04 622.78 427 627 C427.04 627.83 427.08 628.65 427.12 629.5 C426.95 633.08 425.43 634.44 423 637 C418.67 640.9 415.59 642.12 409.85 642.14 C409.03 642.15 408.21 642.15 407.36 642.16 C406.47 642.16 405.58 642.16 404.66 642.16 C403.24 642.17 403.24 642.17 401.8 642.18 C398.67 642.19 395.54 642.2 392.42 642.2 C390.24 642.21 388.07 642.21 385.89 642.22 C381.33 642.23 376.77 642.24 372.21 642.24 C366.38 642.25 360.54 642.27 354.7 642.3 C350.21 642.32 345.72 642.32 341.22 642.32 C339.07 642.33 336.92 642.33 334.77 642.35 C331.75 642.36 328.74 642.36 325.73 642.36 C324.84 642.37 323.96 642.37 323.05 642.38 C316.29 642.34 311.6 641.13 306.25 636.75 C300.89 630.2 300.56 624.32 300.6 616.14 C300.59 614.53 300.59 614.53 300.58 612.89 C300.56 609.37 300.56 605.85 300.56 602.32 C300.55 599.87 300.53 597.42 300.52 594.97 C300.48 588.53 300.46 582.09 300.45 575.64 C300.42 565.32 300.38 554.99 300.33 544.66 C300.31 541.04 300.31 537.43 300.3 533.82 C300.29 531.62 300.28 529.42 300.27 527.21 C300.27 526.2 300.28 525.19 300.28 524.15 C300.27 523.23 300.27 522.32 300.26 521.37 C300.26 520.17 300.26 520.17 300.25 518.94 C300.17 516.76 300.17 516.76 298 515 C296.12 514.7 296.12 514.7 293.94 514.75 C293.09 514.75 292.24 514.74 291.36 514.74 C290.43 514.75 289.5 514.75 288.53 514.76 C287.55 514.76 286.57 514.75 285.56 514.75 C282.3 514.75 279.04 514.76 275.78 514.77 C273.52 514.77 271.27 514.77 269.01 514.77 C264.28 514.77 259.54 514.78 254.81 514.79 C248.73 514.81 242.65 514.82 236.57 514.81 C231.91 514.81 227.24 514.82 222.58 514.83 C220.34 514.83 218.1 514.83 215.86 514.83 C212.73 514.84 209.6 514.84 206.47 514.85 C205.53 514.85 204.6 514.85 203.64 514.85 C202.79 514.86 201.94 514.86 201.06 514.87 C200.32 514.87 199.58 514.87 198.82 514.87 C196.9 514.89 196.9 514.89 195 516 Z M344 517 C343.71 519.63 343.62 522.03 343.66 524.66 C343.66 525.45 343.66 526.24 343.66 527.06 C343.66 529.68 343.68 532.3 343.71 534.91 C343.71 536.73 343.72 538.54 343.72 540.35 C343.73 545.13 343.76 549.91 343.79 554.69 C343.82 559.56 343.84 564.43 343.85 569.3 C343.89 578.87 343.94 588.43 344 598 C344.99 598 345.98 598 347 598 C359.67 598 372.33 598 385 598 C385.05 587.47 385.08 576.95 385.1 566.42 C385.11 561.53 385.13 556.65 385.15 551.76 C385.17 547.04 385.18 542.33 385.19 537.62 C385.19 535.82 385.2 534.01 385.21 532.21 C385.23 529.7 385.23 527.18 385.23 524.66 C385.23 523.91 385.24 523.16 385.25 522.39 C385.37 518.24 385.37 518.24 383 515 C380.31 514.8 377.73 514.72 375.04 514.73 C374.25 514.73 373.46 514.73 372.64 514.73 C370.97 514.73 369.3 514.73 367.63 514.74 C365.08 514.75 362.52 514.74 359.96 514.73 C358.34 514.73 356.72 514.73 355.1 514.73 C354.33 514.73 353.57 514.73 352.78 514.72 C348.98 514.76 347.23 514.84 344 517 Z M60 630 C61.49 630.99 61.49 630.99 63 632 C63 631.34 63 630.68 63 630 C62.01 630 61.02 630 60 630 Z M52 638 C52 638.99 52 639.98 52 641 C52.99 640.67 53.98 640.34 55 640 C54.67 639.34 54.34 638.68 54 638 C53.34 638 52.68 638 52 638 Z " fill="#000100" transform="translate(702,424)"/>
<path d="M0 0 C32.43 -0.05 64.85 -0.08 97.28 -0.1 C101.11 -0.1 104.94 -0.11 108.77 -0.11 C109.53 -0.11 110.3 -0.11 111.08 -0.11 C123.42 -0.12 135.76 -0.14 148.09 -0.15 C160.76 -0.17 173.43 -0.18 186.09 -0.19 C193.9 -0.19 201.71 -0.2 209.53 -0.22 C215.52 -0.23 221.52 -0.23 227.52 -0.23 C229.97 -0.23 232.43 -0.23 234.88 -0.24 C238.24 -0.25 241.6 -0.25 244.96 -0.24 C245.92 -0.25 246.89 -0.25 247.88 -0.26 C256.9 -0.22 265.38 1.35 274 4 C275.03 4.28 276.07 4.55 277.13 4.84 C281.6 6.11 285.88 7.84 290.19 9.56 C291.76 10.19 293.34 10.82 294.92 11.44 C295.61 11.72 296.3 11.99 297 12.28 C299 13.05 299 13.05 301.17 13.51 C303.51 14.14 304.32 15.27 306 17 C307.78 18.07 309.6 19.09 311.44 20.06 C312.38 20.57 313.33 21.08 314.31 21.6 C315.94 22.45 317.58 23.28 319.23 24.07 C321 25 321 25 322.81 26.88 C325.62 29.6 328.56 31.15 332 33 C332 33.66 332 34.32 332 35 C333.24 35.74 333.24 35.74 334.5 36.5 C335.74 37.24 335.74 37.24 337 38 C337 38.66 337 39.32 337 40 C337.64 40.27 338.28 40.54 338.94 40.81 C341 42 341 42 342 45 C342.66 45 343.32 45 344 45 C345.62 46.38 345.62 46.38 347 48 C347 48.66 347 49.32 347 50 C347.66 50 348.32 50 349 50 C349 50.66 349 51.32 349 52 C349.66 52 350.32 52 351 52 C355 57.41 355 57.41 355 60 C355.66 60 356.32 60 357 60 C358.37 62.01 358.37 62.01 359.88 64.69 C361.46 67.48 362.97 69.96 365.04 72.43 C367.26 75.35 368.34 78.04 369.56 81.5 C371.04 85.66 372.64 89.27 375 93 C378.39 99.05 379.82 105.26 380.87 112.06 C381.45 115.63 382.25 118.87 383.55 122.25 C383.82 122.95 384.09 123.66 384.37 124.39 C384.58 124.92 384.79 125.45 385 126 C385.65 126 386.31 126.01 386.98 126.01 C402.84 126.09 418.71 126.18 434.57 126.29 C442.24 126.34 449.92 126.38 457.59 126.42 C464.27 126.45 470.96 126.49 477.64 126.54 C481.19 126.57 484.73 126.59 488.27 126.6 C492.22 126.62 496.17 126.65 500.11 126.68 C501.89 126.68 501.89 126.68 503.69 126.69 C504.76 126.7 505.83 126.71 506.94 126.72 C507.87 126.73 508.81 126.73 509.77 126.74 C512 127 512 127 514 129 C514.24 130.87 514.24 130.87 514.23 133.17 C514.23 134.04 514.23 134.9 514.23 135.78 C514.22 136.71 514.21 137.64 514.2 138.6 C514.19 140.03 514.19 140.03 514.19 141.49 C514.18 144.53 514.15 147.58 514.12 150.62 C514.11 152.69 514.11 154.75 514.1 156.81 C514.08 161.88 514.04 166.94 514 172 C511.27 173.36 509.14 173.11 506.09 173.1 C504.83 173.1 503.57 173.1 502.27 173.09 C500.86 173.09 499.46 173.08 498.05 173.07 C496.58 173.06 495.11 173.06 493.63 173.05 C489.62 173.04 485.61 173.02 481.6 173 C479.1 172.98 476.59 172.97 474.08 172.96 C466.23 172.92 458.39 172.88 450.54 172.83 C441.49 172.77 432.44 172.73 423.39 172.7 C416.39 172.67 409.39 172.64 402.39 172.59 C398.21 172.57 394.03 172.54 389.86 172.53 C385.92 172.52 381.98 172.5 378.05 172.46 C376.61 172.45 375.17 172.45 373.73 172.45 C356.05 172.44 356.05 172.44 349.06 166.5 C345 161.58 345 161.58 345 158 C344.34 158 343.68 158 343 158 C341.18 150.59 340.66 143.46 340.52 135.87 C340.35 130.51 339.33 126.83 337 122 C336.86 121.09 336.71 120.19 336.56 119.25 C334.51 107.36 328.09 95.63 321 86 C320.01 85.67 319.02 85.34 318 85 C317.67 83.67 317.33 82.33 317 81 C316.01 80.67 315.02 80.34 314 80 C313 78.33 312 76.67 311 75 C310.01 74.67 309.02 74.34 308 74 C308 73.01 308 72.02 308 71 C307.2 70.73 306.39 70.46 305.56 70.19 C304.72 69.8 303.87 69.4 303 69 C302.67 68.01 302.34 67.02 302 66 C300.28 64.97 300.28 64.97 298 64 C296.33 63.05 294.67 62.1 293.01 61.14 C289.53 59.16 286.02 57.26 282.5 55.38 C281.78 54.98 281.06 54.59 280.32 54.18 C275.95 51.84 271.83 50.22 267 49 C266.18 48.73 265.36 48.46 264.51 48.18 C249.33 43.43 232.59 45 217 45 C217 99.78 217 154.56 217 211 C223.27 211.33 229.54 211.66 236 212 C236 198.14 236 184.28 236 170 C242.7 169.98 249.41 169.96 256.31 169.94 C258.43 169.93 260.54 169.92 262.72 169.91 C264.39 169.91 266.06 169.9 267.74 169.9 C268.61 169.9 269.48 169.89 270.37 169.89 C271.62 169.89 271.62 169.89 272.9 169.89 C273.98 169.88 273.98 169.88 275.08 169.88 C277 170 277 170 280 171 C280.02 240.21 280.03 309.42 280.04 378.63 C280.04 379.66 280.04 380.68 280.04 381.74 C280.05 403.99 280.05 426.24 280.05 448.49 C280.05 459.4 280.05 470.31 280.05 481.22 C280.06 482.31 280.06 483.4 280.06 484.51 C280.06 519.73 280.07 554.94 280.08 590.15 C280.09 626.33 280.09 662.5 280.09 698.68 C280.09 703.79 280.09 708.89 280.09 714 C280.09 715 280.1 716.01 280.1 717.05 C280.1 733.24 280.1 749.44 280.11 765.63 C280.11 781.91 280.11 798.18 280.11 814.45 C280.11 824.13 280.11 833.8 280.12 843.47 C280.12 849.93 280.12 856.39 280.12 862.85 C280.12 866.53 280.12 870.21 280.12 873.89 C280.13 877.86 280.13 881.82 280.12 885.78 C280.13 886.93 280.13 888.08 280.13 889.26 C280.12 895.74 280.06 901.81 278 908 C277.34 908 276.68 908 276 908 C275.9 908.6 275.79 909.2 275.69 909.81 C274.65 913.13 272.71 914.42 270.08 916.57 C265.42 918.73 261 918.4 255.92 918.36 C254.79 918.36 253.66 918.37 252.49 918.37 C248.69 918.37 244.9 918.36 241.1 918.34 C238.38 918.34 235.66 918.34 232.94 918.34 C227.08 918.34 221.22 918.33 215.36 918.32 C206.88 918.29 198.41 918.28 189.94 918.28 C176.19 918.27 162.45 918.25 148.7 918.23 C135.35 918.2 122 918.18 108.65 918.16 C107.82 918.16 107 918.16 106.15 918.16 C102.02 918.16 97.89 918.15 93.76 918.15 C59.51 918.12 25.25 918.07 -9 918 C-9.5 916.51 -9.5 916.51 -10 915 C-10.58 914.73 -11.16 914.46 -11.75 914.19 C-15.03 912.45 -17.17 910.18 -19 907 C-19.74 904.43 -20.23 901.91 -20.64 899.27 C-20.96 896.84 -20.96 896.84 -22 894 C-22.09 892.34 -22.13 890.67 -22.13 889 C-22.13 887.96 -22.13 886.92 -22.13 885.85 C-22.13 884.7 -22.13 883.55 -22.13 882.36 C-22.13 881.14 -22.13 879.92 -22.13 878.66 C-22.14 875.25 -22.14 871.83 -22.13 868.42 C-22.13 864.71 -22.14 861.01 -22.14 857.3 C-22.15 850.8 -22.15 844.3 -22.15 837.8 C-22.14 828.14 -22.15 818.47 -22.15 808.81 C-22.16 790.54 -22.17 772.28 -22.17 754.01 C-22.17 739.92 -22.17 725.82 -22.17 711.72 C-22.17 707.66 -22.17 703.61 -22.18 699.56 C-22.18 698.05 -22.18 698.05 -22.18 696.5 C-22.18 668.15 -22.19 639.8 -22.19 611.45 C-22.19 609.84 -22.19 609.84 -22.19 608.2 C-22.19 602.78 -22.19 597.36 -22.19 591.94 C-22.19 590.86 -22.19 589.79 -22.19 588.68 C-22.19 586.5 -22.19 584.32 -22.19 582.14 C-22.18 548.25 -22.19 514.35 -22.21 480.46 C-22.22 442.41 -22.23 404.36 -22.23 366.31 C-22.23 362.25 -22.23 358.2 -22.23 354.15 C-22.23 353.15 -22.23 352.15 -22.23 351.12 C-22.23 335.03 -22.24 318.93 -22.24 302.84 C-22.25 286.68 -22.25 270.51 -22.25 254.35 C-22.24 244.74 -22.24 235.13 -22.25 225.51 C-22.26 219.1 -22.26 212.69 -22.25 206.28 C-22.25 202.62 -22.25 198.96 -22.26 195.3 C-22.26 191.37 -22.26 187.44 -22.25 183.51 C-22.25 182.36 -22.26 181.21 -22.26 180.02 C-22.26 178.98 -22.25 177.94 -22.25 176.87 C-22.25 175.97 -22.25 175.07 -22.25 174.15 C-22 172 -22 172 -20 170 C-18.18 169.75 -18.18 169.75 -15.95 169.74 C-15.11 169.73 -14.28 169.73 -13.42 169.72 C-12.52 169.73 -11.62 169.73 -10.69 169.73 C-9.76 169.73 -8.84 169.73 -7.89 169.73 C-5.93 169.73 -3.97 169.73 -2.01 169.74 C0.99 169.75 3.99 169.74 6.99 169.73 C8.89 169.73 10.79 169.73 12.69 169.73 C13.59 169.73 14.49 169.73 15.42 169.72 C16.67 169.73 16.67 169.73 17.95 169.74 C18.68 169.74 19.42 169.74 20.18 169.75 C22 170 22 170 24 172 C24.25 174.94 24.37 177.79 24.41 180.73 C24.44 182.02 24.44 182.02 24.47 183.34 C24.53 186.1 24.58 188.86 24.62 191.62 C24.66 193.49 24.7 195.36 24.74 197.23 C24.84 201.82 24.92 206.41 25 211 C30.94 211.33 36.88 211.66 43 212 C42.67 156.89 42.34 101.78 42 45 C26.17 44.9 26.17 44.9 10.38 45.38 C9.59 45.41 8.8 45.44 7.99 45.47 C4.2 45.66 2.22 45.85 -1 48 C-3.32 48.65 -5.66 49.25 -8 49.81 C-17.19 52.14 -25.39 55.62 -33.25 60.98 C-35.15 62.08 -36.86 62.57 -39 63 C-39 63.66 -39 64.32 -39 65 C-40.46 66.51 -40.46 66.51 -42.38 68.12 C-43 68.66 -43.63 69.2 -44.27 69.76 C-46 71 -46 71 -48 71 C-48 71.66 -48 72.32 -48 73 C-49.98 73.66 -51.96 74.32 -54 75 C-54.13 76.11 -54.13 76.11 -54.25 77.25 C-55.16 80.58 -56.4 81.72 -58.94 84 C-62.06 86.81 -63.67 88.99 -65 93 C-65.66 93 -66.32 93 -67 93 C-67.14 93.78 -67.29 94.57 -67.44 95.38 C-68 98 -68 98 -69 100 C-69.66 100 -70.32 100 -71 100 C-71.08 100.64 -71.16 101.28 -71.25 101.94 C-71.89 104.57 -72.66 106.52 -73.81 108.94 C-78.07 118.19 -81.26 128.81 -81 139.06 C-80.94 141.62 -80.96 143.82 -81.5 146.32 C-82.01 149.05 -82.13 151.53 -82.14 154.3 C-82.14 155.35 -82.15 156.41 -82.15 157.49 C-82.15 158.64 -82.15 159.8 -82.15 160.98 C-82.16 162.21 -82.16 163.44 -82.16 164.71 C-82.18 168.11 -82.18 171.52 -82.19 174.93 C-82.19 178.6 -82.2 182.28 -82.21 185.96 C-82.23 192.32 -82.25 198.69 -82.26 205.06 C-82.28 214.26 -82.3 223.47 -82.33 232.68 C-82.37 247.62 -82.41 262.56 -82.45 277.5 C-82.45 278.39 -82.45 279.28 -82.45 280.21 C-82.47 287.46 -82.49 294.72 -82.51 301.98 C-82.52 308.33 -82.54 314.68 -82.55 321.03 C-82.55 321.92 -82.56 322.81 -82.56 323.74 C-82.59 338.62 -82.63 353.51 -82.68 368.4 C-82.7 377.59 -82.73 386.78 -82.74 395.97 C-82.76 402.26 -82.77 408.55 -82.79 414.84 C-82.8 418.47 -82.81 422.1 -82.82 425.74 C-82.82 429.67 -82.83 433.59 -82.85 437.52 C-82.85 438.69 -82.85 439.85 -82.85 441.04 C-82.85 442.09 -82.86 443.13 -82.86 444.21 C-82.87 445.11 -82.87 446.02 -82.87 446.96 C-83 449 -83 449 -84 450 C-87.1 450.09 -90.18 450.12 -93.29 450.1 C-94.22 450.1 -95.15 450.09 -96.11 450.09 C-99.09 450.09 -102.08 450.08 -105.06 450.06 C-107.08 450.06 -109.1 450.05 -111.12 450.05 C-116.08 450.04 -121.04 450.02 -126 450 C-126.02 408.79 -126.04 367.58 -126.05 326.38 C-126.05 321.52 -126.05 316.65 -126.05 311.79 C-126.06 310.82 -126.06 309.86 -126.06 308.86 C-126.06 293.17 -126.07 277.49 -126.08 261.8 C-126.09 245.72 -126.09 229.63 -126.09 213.54 C-126.1 203.61 -126.1 193.68 -126.11 183.75 C-126.11 176.94 -126.11 170.14 -126.11 163.33 C-126.11 159.41 -126.11 155.48 -126.12 151.55 C-126.12 147.95 -126.12 144.36 -126.12 140.76 C-126.12 138.84 -126.12 136.92 -126.13 135 C-126.13 133.86 -126.13 132.72 -126.12 131.55 C-126.12 130.57 -126.12 129.59 -126.12 128.57 C-126.01 126.22 -125.64 124.26 -125 122 C-124.79 120.42 -124.6 118.84 -124.44 117.25 C-124.35 116.45 -124.27 115.65 -124.18 114.83 C-124.12 114.22 -124.06 113.62 -124 113 C-123.67 113 -123.34 113 -123 113 C-122.89 112.37 -122.78 111.74 -122.67 111.09 C-121.62 105.43 -120.16 100.34 -118 95 C-117.67 94.01 -117.34 93.02 -117 92 C-116 89 -116 89 -115 88 C-114.69 87.22 -114.38 86.43 -114.06 85.62 C-113 83 -113 83 -111 80 C-110.34 80 -109.68 80 -109 80 C-109.33 79.01 -109.66 78.02 -110 77 C-109.56 74.81 -109.56 74.81 -109 73 C-108.34 73 -107.68 73 -107 73 C-106.5 71.51 -106.5 71.51 -106 70 C-105.34 70 -104.68 70 -104 70 C-103.9 69.24 -103.79 68.47 -103.69 67.69 C-102.94 64.75 -102.22 63.95 -100 62 C-99.34 61.01 -98.68 60.02 -98 59 C-95.6 55.73 -93.1 52.54 -90.56 49.38 C-89.8 48.41 -89.04 47.45 -88.25 46.46 C-86.19 44.21 -84.8 43.09 -82 42 C-82.33 41.34 -82.66 40.68 -83 40 C-81.9 39.38 -81.9 39.38 -80.79 38.75 C-77.19 36.49 -74.28 33.73 -71.18 30.84 C-69.16 29.14 -67.36 28.14 -65 27 C-64.17 26.18 -63.35 25.35 -62.5 24.5 C-59.65 21.65 -57.38 20.52 -53.69 19.12 C-50.26 17.69 -47.21 15.87 -44 14 C-42.67 13.33 -41.33 12.67 -40 12 C-39.01 11.34 -38.02 10.68 -37 10 C-34.67 9.33 -32.33 8.66 -30 8 C-28.91 7.48 -27.81 6.97 -26.69 6.44 C-22.67 4.87 -19.3 4.52 -15.04 4.31 C-14.37 4.21 -13.69 4.1 -13 4 C-12.67 3.34 -12.34 2.68 -12 2 C-9.28 1.59 -9.28 1.59 -5.94 1.38 C-4.83 1.3 -3.73 1.23 -2.59 1.15 C-1.74 1.1 -0.88 1.05 0 1 C0 0.67 0 0.34 0 0 Z M90 44 C87.58 47.63 87.76 49.26 87.79 53.58 C87.79 54.25 87.79 54.92 87.8 55.62 C87.8 57.87 87.83 60.12 87.85 62.38 C87.86 63.99 87.87 65.61 87.87 67.22 C87.89 71.61 87.93 76 87.97 80.39 C88 84.97 88.03 89.56 88.06 94.14 C88.1 101.84 88.16 109.54 88.22 117.24 C88.29 126.15 88.35 135.07 88.41 143.98 C88.46 153.45 88.53 162.93 88.59 172.4 C88.61 175.14 88.63 177.88 88.65 180.61 C88.68 184.91 88.71 189.2 88.74 193.49 C88.76 195.07 88.77 196.65 88.78 198.23 C88.79 200.38 88.81 202.53 88.83 204.67 C88.84 205.88 88.85 207.08 88.86 208.32 C88.7 210.92 88.7 210.92 90 212 C116.73 212 143.46 212 171 212 C171 156.56 171 101.12 171 44 C144.27 44 117.54 44 90 44 Z M-43 62 C-42.34 62.66 -41.68 63.32 -41 64 C-41 63.34 -41 62.68 -41 62 C-41.66 62 -42.32 62 -43 62 Z M-47 65 C-47 65.99 -47 66.98 -47 68 C-46.01 67.67 -45.02 67.34 -44 67 C-44.33 66.34 -44.66 65.68 -45 65 C-45.66 65 -46.32 65 -47 65 Z M-59 77 C-58.67 77.99 -58.34 78.98 -58 80 C-57.34 79.34 -56.68 78.68 -56 78 C-56.99 77.67 -57.98 77.34 -59 77 Z M-62 80 C-62 80.66 -62 81.32 -62 82 C-62.99 82.5 -62.99 82.5 -64 83 C-63.01 83.33 -62.02 83.66 -61 84 C-60.34 83.01 -59.68 82.02 -59 81 C-59.99 80.67 -60.98 80.34 -62 80 Z M-72 95 C-72 95.99 -72 96.98 -72 98 C-71.01 97.67 -70.02 97.34 -69 97 C-69 96.34 -69 95.68 -69 95 C-69.99 95 -70.98 95 -72 95 Z M-118 96 C-117 98 -117 98 -117 98 Z M23 259 C22.7 260.93 22.7 260.93 22.76 263.18 C22.75 264.07 22.75 264.95 22.75 265.86 C22.75 266.84 22.76 267.82 22.77 268.83 C22.77 269.87 22.76 270.91 22.76 271.98 C22.76 275.5 22.78 279.02 22.79 282.54 C22.79 285.07 22.79 287.6 22.8 290.14 C22.8 295.66 22.81 301.19 22.83 306.72 C22.85 314.94 22.86 323.16 22.87 331.38 C22.89 345.21 22.91 359.03 22.94 372.86 C22.97 386.56 23 400.25 23.02 413.95 C23.02 414.8 23.03 415.65 23.03 416.53 C23.03 419.98 23.04 423.44 23.04 426.89 C23.1 459.31 23.16 491.73 23.23 524.15 C23.29 552.98 23.34 581.8 23.39 610.63 C23.39 612.48 23.39 614.33 23.4 616.18 C23.4 617.1 23.4 618.01 23.4 618.96 C23.41 623.56 23.42 628.17 23.42 632.77 C23.42 633.68 23.43 634.59 23.43 635.53 C23.47 659.59 23.51 683.65 23.56 707.71 C23.56 708.56 23.56 709.42 23.56 710.3 C23.57 713.74 23.57 717.18 23.58 720.62 C23.6 732.61 23.62 744.6 23.64 756.58 C23.67 772.03 23.7 787.47 23.73 802.92 C23.75 811.1 23.77 819.27 23.78 827.45 C23.79 833.54 23.8 839.63 23.82 845.72 C23.83 848.19 23.83 850.67 23.83 853.14 C23.84 856.48 23.84 859.83 23.86 863.17 C23.86 864.15 23.85 865.13 23.85 866.14 C23.86 867.02 23.86 867.91 23.87 868.82 C23.87 869.58 23.87 870.35 23.87 871.14 C23.89 873.09 23.89 873.09 25 875 C35.53 875.02 46.05 875.04 56.58 875.05 C61.47 875.06 66.35 875.06 71.24 875.08 C75.96 875.09 80.67 875.09 85.38 875.09 C87.18 875.1 88.99 875.1 90.79 875.11 C93.3 875.11 95.82 875.11 98.34 875.11 C99.09 875.12 99.84 875.12 100.61 875.12 C104.43 875.18 104.43 875.18 108 874 C108.07 825.62 108.12 777.25 108.15 728.87 C108.16 723.17 108.16 717.46 108.16 711.76 C108.17 710.62 108.17 709.48 108.17 708.31 C108.18 689.9 108.2 671.48 108.23 653.07 C108.26 634.19 108.28 615.3 108.28 596.42 C108.29 584.76 108.3 573.1 108.32 561.44 C108.34 553.45 108.34 545.47 108.34 537.48 C108.34 532.87 108.34 528.25 108.36 523.64 C108.37 519.42 108.37 515.21 108.36 510.99 C108.36 509.46 108.37 507.92 108.37 506.39 C108.39 504.32 108.38 502.25 108.37 500.18 C108.37 498.45 108.37 498.45 108.37 496.68 C108.25 495.8 108.13 494.91 108 494 C104.07 491.38 100.73 491.75 96.18 491.8 C95.41 491.81 94.65 491.81 93.86 491.81 C91.01 491.82 88.16 491.85 85.31 491.88 C78.94 491.92 72.57 491.96 66 492 C66 477.48 66 462.96 66 448 C82.41 447.98 98.82 447.96 115.23 447.95 C122.85 447.94 130.47 447.94 138.09 447.92 C144.73 447.91 151.37 447.91 158.01 447.91 C161.53 447.9 165.04 447.9 168.56 447.89 C172.48 447.89 176.4 447.89 180.32 447.89 C181.49 447.88 182.67 447.88 183.88 447.88 C185.47 447.88 185.47 447.88 187.1 447.88 C188.02 447.88 188.95 447.88 189.91 447.88 C192 448 192 448 193 449 C193.09 450.35 193.12 451.71 193.11 453.06 C193.11 453.92 193.11 454.78 193.11 455.67 C193.11 457.07 193.11 457.07 193.1 458.5 C193.1 459.93 193.1 459.93 193.09 461.39 C193.09 464.45 193.08 467.51 193.06 470.56 C193.06 472.63 193.05 474.7 193.05 476.76 C193.04 481.84 193.02 486.92 193 492 C191.8 491.99 190.6 491.99 189.36 491.98 C184.91 491.97 180.47 491.95 176.02 491.95 C174.09 491.94 172.17 491.93 170.24 491.92 C167.48 491.91 164.71 491.91 161.95 491.9 C161.08 491.9 160.22 491.89 159.33 491.89 C155.03 491.76 155.03 491.76 151 493 C150.95 541.38 150.92 589.75 150.9 638.13 C150.9 643.83 150.89 649.54 150.89 655.24 C150.89 656.95 150.89 656.95 150.89 658.69 C150.88 677.1 150.86 695.52 150.85 713.93 C150.83 732.81 150.82 751.7 150.81 770.58 C150.81 782.24 150.8 793.9 150.78 805.56 C150.77 813.55 150.77 821.53 150.77 829.52 C150.77 834.13 150.77 838.75 150.76 843.36 C150.75 847.58 150.75 851.79 150.76 856.01 C150.76 857.54 150.76 859.08 150.75 860.61 C150.74 862.68 150.75 864.75 150.75 866.82 C150.75 867.97 150.75 869.13 150.75 870.32 C150.73 873.15 150.73 873.15 153 875 C155.62 875.19 158.13 875.25 160.75 875.23 C161.55 875.23 162.35 875.23 163.18 875.23 C165.83 875.23 168.48 875.21 171.13 875.2 C172.97 875.19 174.8 875.19 176.64 875.19 C181.48 875.18 186.31 875.16 191.15 875.14 C196.08 875.12 201.02 875.11 205.95 875.1 C215.63 875.08 225.32 875.04 235 875 C235.93 872.22 236.13 870.57 236.13 867.7 C236.13 866.37 236.13 866.37 236.13 865.02 C236.13 864.04 236.13 863.07 236.13 862.06 C236.13 860.51 236.13 860.51 236.13 858.92 C236.14 855.41 236.14 851.89 236.13 848.38 C236.14 845.85 236.14 843.32 236.14 840.79 C236.15 835.27 236.15 829.76 236.15 824.24 C236.14 816.03 236.15 807.83 236.15 799.62 C236.16 784.12 236.17 768.61 236.17 753.11 C236.17 741.14 236.17 729.17 236.17 717.21 C236.17 713.76 236.17 710.32 236.18 706.88 C236.18 706.03 236.18 705.17 236.18 704.29 C236.18 680.22 236.19 656.15 236.19 632.08 C236.19 631.17 236.19 630.27 236.19 629.33 C236.19 624.73 236.19 620.13 236.19 615.52 C236.19 614.61 236.19 613.7 236.19 612.75 C236.19 610.91 236.19 609.06 236.19 607.21 C236.18 578.43 236.19 549.66 236.21 520.89 C236.22 488.59 236.23 456.28 236.23 423.98 C236.23 420.54 236.23 417.1 236.23 413.66 C236.23 412.81 236.23 411.97 236.23 411.09 C236.23 397.43 236.24 383.77 236.24 370.1 C236.25 356.38 236.25 342.67 236.25 328.95 C236.24 320.79 236.24 312.63 236.25 304.47 C236.26 298.39 236.26 292.31 236.25 286.23 C236.25 283.76 236.25 281.29 236.26 278.82 C236.26 275.48 236.26 272.15 236.25 268.81 C236.25 267.83 236.26 266.86 236.26 265.85 C236.26 264.53 236.26 264.53 236.25 263.18 C236.25 262.03 236.25 262.03 236.25 260.86 C236.16 258.75 236.16 258.75 234 257 C231.25 256.8 228.59 256.73 225.84 256.75 C224.98 256.74 224.13 256.74 223.25 256.74 C220.37 256.73 217.5 256.73 214.62 256.74 C212.56 256.74 210.51 256.73 208.45 256.73 C202.85 256.72 197.26 256.73 191.66 256.73 C185.81 256.74 179.97 256.73 174.12 256.73 C164.3 256.72 154.48 256.73 144.66 256.74 C133.3 256.75 121.93 256.75 110.57 256.74 C100.82 256.73 91.08 256.73 81.33 256.73 C75.51 256.73 69.68 256.73 63.86 256.73 C58.38 256.72 52.9 256.73 47.43 256.74 C45.41 256.74 43.4 256.74 41.38 256.73 C38.64 256.73 35.9 256.74 33.16 256.75 C31.95 256.74 31.95 256.74 30.72 256.73 C26.39 256.6 26.39 256.6 23 259 Z " fill="#000100" transform="translate(126,362)"/>
<path d="M0 0 C0.78 0 1.55 0.01 2.36 0.01 C3.58 0.01 3.58 0.01 4.82 0.01 C7.53 0.01 10.24 0.02 12.95 0.03 C14.82 0.03 16.69 0.03 18.57 0.03 C23.52 0.03 28.46 0.04 33.41 0.06 C38.44 0.07 43.47 0.07 48.5 0.08 C57.35 0.09 66.19 0.1 75.04 0.12 C77.22 0.12 79.4 0.12 81.58 0.12 C81.58 0.78 81.58 1.44 81.58 2.12 C82.15 2.16 82.72 2.2 83.3 2.24 C88.71 2.7 92.67 3.86 97.58 6.12 C98.53 6.31 99.48 6.5 100.45 6.69 C101.15 6.83 101.86 6.98 102.58 7.12 C102.91 7.78 103.24 8.44 103.58 9.12 C105.19 10.06 106.84 10.93 108.52 11.75 C109.86 12.42 109.86 12.42 111.23 13.1 C113.46 14.26 113.46 14.26 115.58 14.12 C116.57 15.11 116.57 15.11 117.58 16.12 C118.86 17.1 120.15 18.05 121.45 19 C124.42 21.19 126.97 23.52 129.58 26.12 C130.44 26.6 131.31 27.07 132.2 27.56 C135.05 29.44 135.62 30.91 136.58 34.12 C137.24 34.12 137.9 34.12 138.58 34.12 C139.94 35.8 141.22 37.54 142.45 39.31 C145.41 43.51 145.41 43.51 148.61 47.52 C151.01 50.69 152.58 53.95 154.2 57.56 C154.65 58.53 154.65 58.53 155.11 59.51 C156.86 63.32 158.31 67.13 159.58 71.12 C159.84 71.81 160.09 72.49 160.36 73.19 C162.51 78.98 163.37 84.77 164.15 90.89 C164.52 94 164.52 94 165.1 96.53 C165.57 99.06 165.69 101.33 165.68 103.9 C165.67 105.27 165.67 105.27 165.67 106.68 C165.66 107.66 165.65 108.63 165.64 109.64 C165.63 111.16 165.63 111.16 165.63 112.71 C165.62 115.93 165.6 119.15 165.58 122.37 C165.55 126.63 165.53 130.88 165.52 135.14 C165.51 136.13 165.5 137.11 165.49 138.13 C165.49 139.48 165.49 139.48 165.48 140.87 C165.48 141.67 165.47 142.47 165.46 143.29 C165.38 145.14 165.38 145.14 166.58 146.12 C169.27 146.26 171.94 146.34 174.63 146.37 C176.29 146.4 177.96 146.44 179.62 146.47 C182.26 146.52 184.89 146.56 187.52 146.6 C190.06 146.64 192.59 146.69 195.13 146.75 C195.91 146.75 196.7 146.76 197.51 146.77 C201.63 146.86 203.8 147.23 207.58 149.12 C207.58 163.31 207.58 177.5 207.58 192.12 C193.72 192.12 179.86 192.12 165.58 192.12 C165.62 204.61 165.62 204.61 165.67 217.1 C165.74 243.64 165.74 243.64 163.58 250.12 C163.31 252.89 163.13 255.66 162.96 258.43 C162.58 261.14 161.83 262.73 160.58 265.12 C160.21 266.78 159.88 268.45 159.58 270.12 C159.15 271.84 158.69 273.55 158.2 275.25 C157.97 276.1 157.73 276.95 157.49 277.82 C156.52 280.28 155.47 281.33 153.58 283.12 C152.52 285.43 151.52 287.77 150.58 290.12 C150.25 290.78 149.92 291.44 149.58 292.12 C148.92 292.12 148.26 292.12 147.58 292.12 C147.54 292.81 147.5 293.49 147.45 294.19 C146.21 298.35 143.64 301.1 140.58 304.12 C139.92 304.45 139.26 304.78 138.58 305.12 C137.9 306.27 137.9 306.27 137.2 307.44 C135.12 310.88 133.24 313.57 129.33 314.87 C128.75 314.96 128.17 315.04 127.58 315.12 C127.58 315.78 127.58 316.44 127.58 317.12 C126.12 318.63 126.12 318.63 124.2 320.25 C123.58 320.79 122.95 321.33 122.3 321.88 C120.58 323.12 120.58 323.12 118.58 323.12 C118.58 323.78 118.58 324.44 118.58 325.12 C115.67 326.38 113.78 327.12 110.58 327.12 C110.58 327.78 110.58 328.44 110.58 329.12 C106.85 331.16 104.91 332.12 100.58 332.12 C100.25 333.11 99.92 334.1 99.58 335.12 C98.59 335.23 97.6 335.33 96.58 335.44 C93.76 335.83 91.39 336.53 88.77 337.62 C84.96 339.15 81.44 339.59 77.36 339.82 C74.37 340.08 74.37 340.08 70.73 341.13 C64.63 342.5 58.59 342.41 52.36 342.39 C50.49 342.39 50.49 342.39 48.57 342.4 C45.27 342.4 41.96 342.39 38.66 342.38 C36.64 342.37 34.63 342.38 32.62 342.39 C28.72 342.4 24.82 342.4 20.93 342.39 C19.74 342.39 18.55 342.4 17.32 342.4 C11.24 342.37 5.61 341.98 -0.32 340.55 C-2.71 339.99 -2.71 339.99 -6.36 340.12 C-9.42 340.12 -9.42 340.12 -12.42 338.12 C-14.49 337.53 -14.49 337.53 -16.73 337.12 C-26.1 335.16 -33.82 331.33 -41.76 326.08 C-43.39 324.96 -43.39 324.96 -45.42 325.12 C-45.42 324.46 -45.42 323.8 -45.42 323.12 C-45.98 322.87 -46.54 322.62 -47.11 322.36 C-54.45 318.43 -61.79 312.07 -66.42 305.12 C-66.42 304.13 -66.42 303.14 -66.42 302.12 C-67.74 302.12 -69.06 302.12 -70.42 302.12 C-74.23 299.03 -75.77 296.95 -76.42 292.12 C-77.08 291.46 -77.74 290.8 -78.42 290.12 C-78.09 289.46 -77.76 288.8 -77.42 288.12 C-78.08 287.79 -78.74 287.46 -79.42 287.12 C-79.09 286.46 -78.76 285.8 -78.42 285.12 C-79.08 285.12 -79.74 285.12 -80.42 285.12 C-83.73 278.66 -86.45 272.57 -87.89 265.45 C-88.59 262.39 -89.63 259.49 -90.74 256.56 C-92.83 249.11 -92.55 241.41 -92.52 233.75 C-92.52 232.58 -92.52 231.42 -92.52 230.22 C-92.51 226.52 -92.5 222.82 -92.48 219.12 C-92.48 216.61 -92.47 214.09 -92.47 211.57 C-92.46 205.42 -92.44 199.27 -92.42 193.12 C-93.65 193.1 -94.88 193.07 -96.15 193.05 C-100.71 192.95 -105.27 192.85 -109.83 192.75 C-111.8 192.71 -113.78 192.67 -115.75 192.63 C-118.59 192.57 -121.42 192.51 -124.26 192.44 C-125.14 192.42 -126.03 192.41 -126.94 192.39 C-133.19 192.24 -133.19 192.24 -135.42 191.12 C-135.45 185.18 -135.46 179.23 -135.48 173.29 C-135.48 171.27 -135.49 169.24 -135.5 167.22 C-135.51 164.32 -135.52 161.41 -135.52 158.51 C-135.52 157.6 -135.53 156.69 -135.54 155.75 C-135.54 154.91 -135.54 154.07 -135.54 153.21 C-135.54 152.47 -135.54 151.72 -135.54 150.96 C-135.42 149.12 -135.42 149.12 -134.42 147.12 C-120.56 147.12 -106.7 147.12 -92.42 147.12 C-92.42 128.64 -92.42 110.16 -92.42 91.12 C-92.09 91.12 -91.76 91.12 -91.42 91.12 C-91.37 90.29 -91.32 89.46 -91.27 88.6 C-91.2 87.52 -91.12 86.43 -91.05 85.31 C-90.98 84.23 -90.91 83.15 -90.84 82.04 C-90.42 79.12 -90.42 79.12 -88.42 76.12 C-88.08 74.13 -87.75 72.13 -87.42 70.12 C-86.79 68.78 -86.12 67.44 -85.42 66.12 C-85.05 64.8 -84.71 63.47 -84.42 62.12 C-83.76 62.12 -83.1 62.12 -82.42 62.12 C-82.3 61.4 -82.17 60.68 -82.05 59.94 C-81.43 57.17 -80.54 54.73 -79.42 52.12 C-78.76 52.12 -78.1 52.12 -77.42 52.12 C-77.32 51.36 -77.22 50.6 -77.11 49.81 C-76.36 46.88 -75.64 46.08 -73.42 44.12 C-72.76 43.13 -72.1 42.14 -71.42 41.12 C-65.36 32.85 -57.97 23.39 -48.42 19.12 C-48.42 18.46 -48.42 17.8 -48.42 17.12 C-47.49 16.86 -46.57 16.59 -45.61 16.31 C-42.51 15.16 -41.61 14.41 -39.42 12.12 C-37.76 11.44 -36.09 10.78 -34.42 10.12 C-33.82 9.63 -33.23 9.13 -32.61 8.62 C-29.45 6.46 -26.12 5.92 -22.42 5.12 C-20.22 4.61 -18.45 4.14 -16.42 3.12 C-15.43 3.62 -15.43 3.62 -14.42 4.12 C-14.42 3.46 -14.42 2.8 -14.42 2.12 C-12.37 1.9 -10.32 1.67 -8.27 1.44 C-5.34 0.94 -3.33 0.01 0 0 Z M73.58 42.12 C74.58 44.12 74.58 44.12 74.58 44.12 Z M-3.42 46.12 C-5.41 46.51 -7.41 46.86 -9.42 47.12 C-9.42 47.78 -9.42 48.44 -9.42 49.12 C-10.13 49.31 -10.84 49.49 -11.57 49.68 C-12.49 49.93 -13.41 50.18 -14.36 50.44 C-15.28 50.68 -16.19 50.92 -17.14 51.18 C-17.89 51.49 -18.64 51.8 -19.42 52.12 C-19.75 53.11 -20.08 54.1 -20.42 55.12 C-21.74 55.83 -23.07 56.49 -24.42 57.12 C-27.15 59.04 -27.15 59.04 -29.42 61.12 C-29.42 61.78 -29.42 62.44 -29.42 63.12 C-30.08 63.12 -30.74 63.12 -31.42 63.12 C-42.64 75.54 -47.77 88.86 -47.62 105.4 C-47.61 106.57 -47.61 107.73 -47.61 108.94 C-47.6 112.65 -47.57 116.35 -47.55 120.06 C-47.54 122.58 -47.53 125.1 -47.52 127.63 C-47.5 133.79 -47.46 139.96 -47.42 146.12 C-44.56 147.56 -42.12 147.25 -38.92 147.24 C-37.9 147.25 -37.9 147.25 -36.87 147.25 C-34.6 147.25 -32.32 147.24 -30.05 147.24 C-28.42 147.24 -26.8 147.24 -25.17 147.24 C-20.75 147.24 -16.32 147.23 -11.9 147.23 C-7.28 147.22 -2.66 147.22 1.96 147.22 C10.71 147.21 19.46 147.21 28.21 147.2 C38.17 147.19 48.13 147.18 58.09 147.17 C78.59 147.16 99.08 147.15 119.58 147.12 C119.65 139.49 119.71 131.86 119.74 124.23 C119.76 121.64 119.78 119.05 119.8 116.45 C119.84 112.71 119.86 108.97 119.87 105.23 C119.89 104.08 119.9 102.94 119.92 101.76 C119.92 91.9 118.25 83.14 113.2 74.56 C112.36 73.07 112.36 73.07 111.49 71.56 C109.33 68.81 107.8 68.27 104.58 67.12 C104.15 65.76 104.15 65.76 103.7 64.37 C101.66 58.49 96 54.91 90.58 52.12 C89.92 52.12 89.26 52.12 88.58 52.12 C88.58 51.46 88.58 50.8 88.58 50.12 C84.65 48.46 80.68 47.28 76.58 46.12 C75.69 45.75 74.8 45.38 73.89 45 C68.85 43.67 63.76 43.78 58.58 44.12 C57.3 45.18 57.3 45.18 57.46 47.6 C57.46 48.7 57.46 49.8 57.46 50.93 C57.46 52.17 57.46 53.41 57.46 54.69 C57.47 56.06 57.48 57.42 57.48 58.78 C57.48 60.17 57.48 61.56 57.48 62.95 C57.49 66.61 57.5 70.27 57.51 73.93 C57.52 77.67 57.52 81.4 57.53 85.13 C57.54 92.46 57.56 99.79 57.58 107.12 C43.39 107.12 29.2 107.12 14.58 107.12 C14.58 86.33 14.58 65.54 14.58 44.12 C1.06 42.74 1.06 42.74 -3.42 46.12 Z M-25.42 52.12 C-24.42 54.12 -24.42 54.12 -24.42 54.12 Z M-26.42 54.12 C-25.42 56.12 -25.42 56.12 -25.42 56.12 Z M-37.42 64.12 C-37.42 65.11 -37.42 66.1 -37.42 67.12 C-36.43 66.79 -35.44 66.46 -34.42 66.12 C-34.75 65.46 -35.08 64.8 -35.42 64.12 C-36.08 64.12 -36.74 64.12 -37.42 64.12 Z M-42.42 72.12 C-41.42 74.12 -41.42 74.12 -41.42 74.12 Z M-40.42 72.12 C-39.42 74.12 -39.42 74.12 -39.42 74.12 Z M-47.42 192.12 C-47.47 199.65 -47.5 207.18 -47.53 214.71 C-47.54 218.2 -47.55 221.7 -47.57 225.19 C-47.6 229.21 -47.61 233.23 -47.62 237.24 C-47.63 238.5 -47.64 239.76 -47.65 241.05 C-47.65 242.22 -47.65 243.38 -47.65 244.57 C-47.65 245.6 -47.66 246.62 -47.66 247.68 C-47.66 250.3 -47.66 250.3 -45.42 252.12 C-45.21 253.47 -45.21 253.47 -45 254.84 C-44.33 258.63 -43 261.31 -41.17 264.69 C-40.59 265.78 -40.01 266.88 -39.41 268 C-37.38 271.19 -35.15 273.52 -32.42 276.12 C-31.76 277.11 -31.1 278.1 -30.42 279.12 C-28.94 279.62 -28.94 279.62 -27.42 280.12 C-26.93 280.97 -26.43 281.82 -25.92 282.69 C-25.43 283.49 -24.93 284.3 -24.42 285.12 C-23.43 285.12 -22.44 285.12 -21.42 285.12 C-21.42 285.78 -21.42 286.44 -21.42 287.12 C-20.91 287.38 -20.41 287.63 -19.88 287.89 C-18.85 288.41 -18.85 288.41 -17.8 288.94 C-17.07 289.3 -16.34 289.66 -15.59 290.04 C-13.77 290.95 -11.97 291.88 -10.17 292.81 C-6.58 294.53 -3.69 295.09 0.27 295.62 C3.58 296.12 3.58 296.12 4.58 297.12 C6.58 297.23 8.59 297.26 10.6 297.27 C12.53 297.28 12.53 297.28 14.5 297.29 C15.92 297.29 17.34 297.29 18.75 297.29 C20.2 297.3 21.65 297.3 23.09 297.3 C26.13 297.31 29.17 297.31 32.2 297.31 C36.1 297.31 39.99 297.32 43.88 297.34 C46.87 297.35 49.86 297.35 52.85 297.35 C54.28 297.35 55.71 297.36 57.15 297.37 C59.16 297.38 61.16 297.37 63.17 297.37 C64.89 297.37 64.89 297.37 66.64 297.37 C69.56 297.13 71.07 296.53 73.58 295.12 C75.91 294.79 78.24 294.46 80.58 294.12 C82.92 293.38 82.92 293.38 84.58 292.12 C84.91 291.13 85.24 290.14 85.58 289.12 C86.75 288.91 86.75 288.91 87.95 288.69 C90.54 288.25 90.54 288.25 92.58 287.12 C92.58 286.46 92.58 285.8 92.58 285.12 C93.57 285.45 94.56 285.78 95.58 286.12 C99.08 282.89 99.08 282.89 101.64 278.94 C102.87 276.57 104.22 276.27 106.58 275.12 C108.64 272.76 109.58 271.13 110.58 268.12 C111.24 267.79 111.9 267.46 112.58 267.12 C113.41 265.38 113.41 265.38 114.08 263.31 C114.86 261.09 115.62 259.04 116.7 256.94 C117.78 254.71 118.14 252.55 118.58 250.12 C118.91 249.13 119.24 248.14 119.58 247.12 C119.67 245.37 119.71 243.6 119.71 241.84 C119.71 240.23 119.71 240.23 119.72 238.58 C119.72 237.41 119.71 236.25 119.71 235.05 C119.71 233.86 119.71 232.67 119.71 231.44 C119.71 228.92 119.71 226.4 119.71 223.88 C119.7 220.01 119.71 216.13 119.71 212.26 C119.71 209.82 119.71 207.37 119.71 204.93 C119.71 203.18 119.71 203.18 119.72 201.39 C119.71 200.32 119.71 199.25 119.71 198.15 C119.71 197.2 119.71 196.25 119.71 195.27 C119.82 193.14 119.82 193.14 118.58 192.12 C116.44 192.03 114.3 192 112.16 192 C111.48 192 110.8 192 110.1 192 C107.81 192 105.52 192.01 103.23 192.01 C101.59 192.01 99.96 192.01 98.32 192.01 C93.87 192.01 89.41 192.02 84.96 192.02 C80.31 192.03 75.66 192.03 71.01 192.03 C62.2 192.03 53.38 192.04 44.57 192.05 C34.54 192.06 24.51 192.07 14.49 192.07 C-6.15 192.08 -26.79 192.1 -47.42 192.12 Z M152.58 277.12 C153.58 279.12 153.58 279.12 153.58 279.12 Z M154.58 277.12 C155.58 279.12 155.58 279.12 155.58 279.12 Z M142.58 294.12 C142.91 295.11 143.24 296.1 143.58 297.12 C144.24 296.79 144.9 296.46 145.58 296.12 C145.58 295.46 145.58 294.8 145.58 294.12 C144.59 294.12 143.6 294.12 142.58 294.12 Z M139.58 297.12 C139.25 298.11 138.92 299.1 138.58 300.12 C139.57 300.12 140.56 300.12 141.58 300.12 C141.58 299.13 141.58 298.14 141.58 297.12 C140.92 297.12 140.26 297.12 139.58 297.12 Z M132.58 307.12 C133.58 309.12 133.58 309.12 133.58 309.12 Z M134.58 307.12 C135.58 309.12 135.58 309.12 135.58 309.12 Z M129.58 309.12 C129.58 310.11 129.58 311.1 129.58 312.12 C130.57 311.79 131.56 311.46 132.58 311.12 C132.25 310.46 131.92 309.8 131.58 309.12 C130.92 309.12 130.26 309.12 129.58 309.12 Z M123.58 314.12 C123.58 315.11 123.58 316.1 123.58 317.12 C124.24 316.79 124.9 316.46 125.58 316.12 C125.58 315.46 125.58 314.8 125.58 314.12 C124.92 314.12 124.26 314.12 123.58 314.12 Z M119.58 317.12 C119.58 318.11 119.58 319.1 119.58 320.12 C120.24 319.79 120.9 319.46 121.58 319.12 C120.92 318.46 120.26 317.8 119.58 317.12 Z M-21.42 332.12 C-20.42 334.12 -20.42 334.12 -20.42 334.12 Z " fill="#000100" transform="translate(219.42184448242188,-0.124420166015625)"/>
<path d="M0 0 C1.04 -0 1.04 -0 2.09 -0.01 C4.42 -0.02 6.74 -0.01 9.07 -0 C10.73 -0.01 12.39 -0.01 14.05 -0.02 C18.57 -0.02 23.1 -0.02 27.62 -0.01 C32.34 -0.01 37.07 -0.01 41.79 -0.02 C49.73 -0.02 57.67 -0.02 65.6 -0.01 C74.79 0 83.97 0 93.16 -0.01 C101.03 -0.02 108.91 -0.02 116.78 -0.02 C121.49 -0.01 126.2 -0.01 130.91 -0.02 C135.33 -0.02 139.76 -0.02 144.19 -0.01 C145.81 -0.01 147.44 -0.01 149.07 -0.01 C151.28 -0.02 153.5 -0.01 155.71 0 C156.96 0 158.2 0 159.48 0 C162.36 0.25 162.36 0.25 164.36 2.25 C164.6 4.13 164.6 4.13 164.58 6.43 C164.58 7.72 164.58 7.72 164.58 9.04 C164.57 9.97 164.56 10.9 164.55 11.86 C164.55 12.81 164.55 13.76 164.54 14.74 C164.53 17.79 164.51 20.83 164.48 23.88 C164.47 25.94 164.46 28 164.45 30.07 C164.43 35.13 164.4 40.19 164.36 45.25 C161.45 46.71 158.95 46.36 155.7 46.34 C155.01 46.33 154.32 46.33 153.6 46.33 C151.27 46.31 148.95 46.29 146.62 46.28 C144.95 46.27 143.29 46.26 141.62 46.25 C137.09 46.22 132.56 46.19 128.03 46.15 C123.3 46.12 118.57 46.09 113.83 46.06 C104.87 46.01 95.91 45.94 86.94 45.88 C76.74 45.81 66.54 45.74 56.33 45.68 C35.34 45.54 14.35 45.4 -6.64 45.25 C-8.14 42.41 -8.89 40.48 -8.9 37.25 C-8.91 36.48 -8.91 35.7 -8.92 34.91 C-8.92 34.08 -8.91 33.25 -8.91 32.4 C-8.91 31.55 -8.91 30.69 -8.91 29.81 C-8.92 28.01 -8.91 26.2 -8.9 24.4 C-8.89 21.63 -8.9 18.87 -8.92 16.1 C-8.92 14.35 -8.91 12.59 -8.91 10.84 C-8.91 10.01 -8.92 9.18 -8.92 8.32 C-8.86 0.75 -7.32 0 0 0 Z " fill="#000100" transform="translate(795.6429443359375,808.7460327148438)"/>
<path d="M0 0 C74.75 0.5 74.75 0.5 151 1 C151 14.86 151 28.72 151 43 C148.3 44.35 146.21 44.13 143.19 44.13 C141.96 44.14 140.72 44.14 139.44 44.15 C138.07 44.15 136.69 44.15 135.31 44.15 C133.87 44.15 132.42 44.15 130.97 44.16 C127.04 44.16 123.11 44.17 119.18 44.17 C115.9 44.17 112.62 44.17 109.35 44.18 C101.61 44.18 93.88 44.19 86.15 44.19 C78.17 44.18 70.18 44.2 62.2 44.21 C55.35 44.22 48.5 44.23 41.65 44.23 C37.56 44.23 33.47 44.23 29.37 44.24 C25.53 44.25 21.68 44.25 17.83 44.24 C16.42 44.24 15 44.25 13.59 44.25 C11.66 44.26 9.73 44.25 7.81 44.25 C6.19 44.25 6.19 44.25 4.54 44.25 C2 44 2 44 0 42 C0 28.14 0 14.28 0 0 Z " fill="#000100" transform="translate(489,596)"/>
<path d="M0 0 C0.82 -0 1.63 -0.01 2.47 -0.01 C5.18 -0.02 7.89 -0.02 10.59 -0.02 C12.47 -0.03 14.35 -0.03 16.22 -0.03 C20.15 -0.04 24.09 -0.04 28.02 -0.04 C33.07 -0.04 38.13 -0.05 43.18 -0.07 C47.05 -0.08 50.92 -0.08 54.8 -0.08 C56.66 -0.08 58.52 -0.09 60.39 -0.1 C62.99 -0.11 65.59 -0.1 68.19 -0.1 C68.96 -0.1 69.74 -0.11 70.54 -0.11 C75.87 -0.08 75.87 -0.08 78.09 2.15 C78.34 3.97 78.34 3.97 78.34 6.21 C78.34 7.47 78.34 7.47 78.35 8.75 C78.34 10.11 78.34 10.11 78.32 11.49 C78.32 12.42 78.32 13.35 78.32 14.3 C78.32 16.26 78.31 18.22 78.3 20.19 C78.28 23.2 78.28 26.21 78.28 29.23 C78.27 31.13 78.27 33.03 78.26 34.93 C78.26 35.84 78.26 36.74 78.26 37.68 C78.21 44.03 78.21 44.03 77.09 45.15 C74.49 45.26 71.92 45.31 69.32 45.32 C68.5 45.33 67.69 45.34 66.85 45.34 C64.14 45.36 61.43 45.37 58.73 45.38 C57.34 45.39 57.34 45.39 55.93 45.4 C51.05 45.42 46.17 45.43 41.29 45.44 C36.24 45.45 31.19 45.49 26.15 45.53 C22.27 45.55 18.4 45.56 14.52 45.56 C12.66 45.57 10.8 45.58 8.94 45.6 C6.33 45.62 3.73 45.62 1.13 45.62 C-0.03 45.63 -0.03 45.63 -1.21 45.65 C-6.39 45.6 -6.39 45.6 -8.89 43.37 C-9.96 41.03 -10.27 39.58 -10.25 37.02 C-10.25 36.22 -10.25 35.42 -10.25 34.59 C-10.23 33.74 -10.22 32.88 -10.2 32 C-10.19 31.12 -10.19 30.24 -10.19 29.33 C-10.17 26.52 -10.13 23.71 -10.09 20.9 C-10.08 18.99 -10.07 17.08 -10.05 15.17 C-10.02 10.49 -9.97 5.82 -9.91 1.15 C-6.78 -0.42 -3.44 -0 0 0 Z " fill="#000100" transform="translate(796.90625,723.854736328125)"/>
<path d="M0 0 C1.26 0 1.26 0 2.55 0 C3.91 0.01 3.91 0.01 5.3 0.02 C6.23 0.02 7.16 0.02 8.12 0.02 C11.09 0.03 14.07 0.04 17.04 0.05 C19.06 0.06 21.07 0.06 23.09 0.06 C28.03 0.08 32.97 0.09 37.92 0.11 C39.07 2.42 39.04 3.72 39.03 6.29 C39.03 7.16 39.03 8.03 39.03 8.93 C39.03 9.85 39.02 10.77 39.02 11.72 C39.01 12.56 39.01 13.4 39.01 14.27 C39.01 17.43 38.99 20.58 38.98 23.74 C38.96 30.79 38.94 37.85 38.92 45.11 C24.73 45.11 10.54 45.11 -4.08 45.11 C-6.33 40.61 -6.33 40.61 -6.31 36.99 C-6.31 36.19 -6.31 35.39 -6.31 34.56 C-6.29 33.28 -6.29 33.28 -6.28 31.97 C-6.28 31.09 -6.27 30.21 -6.27 29.3 C-6.26 26.49 -6.23 23.68 -6.21 20.86 C-6.2 18.95 -6.19 17.05 -6.18 15.14 C-6.16 10.46 -6.12 5.79 -6.08 1.11 C-3.8 -0.03 -2.54 -0.01 0 0 Z " fill="#000100" transform="translate(1028.08251953125,1128.886474609375)"/>
<path d="M0 0 C1.26 0 1.26 0 2.55 0 C3.91 0.01 3.91 0.01 5.3 0.02 C6.23 0.02 7.16 0.02 8.12 0.02 C11.09 0.03 14.07 0.04 17.04 0.05 C19.06 0.06 21.07 0.06 23.09 0.06 C28.03 0.08 32.97 0.09 37.92 0.11 C39.06 2.39 39.04 3.65 39.05 6.18 C39.05 7.02 39.05 7.86 39.06 8.72 C39.05 9.62 39.05 10.53 39.05 11.46 C39.05 12.39 39.05 13.32 39.05 14.27 C39.05 16.23 39.05 18.19 39.05 20.15 C39.04 23.17 39.05 26.18 39.05 29.19 C39.05 31.1 39.05 33 39.05 34.9 C39.05 35.81 39.05 36.71 39.06 37.65 C39.03 44 39.03 44 37.92 45.11 C34.81 45.2 31.73 45.23 28.63 45.21 C27.7 45.21 26.77 45.21 25.81 45.21 C22.83 45.2 19.84 45.19 16.85 45.18 C14.84 45.17 12.82 45.17 10.8 45.16 C5.84 45.15 0.88 45.13 -4.08 45.11 C-5.69 42.27 -6.33 40.25 -6.31 36.99 C-6.31 36.19 -6.31 35.39 -6.31 34.56 C-6.29 33.28 -6.29 33.28 -6.28 31.97 C-6.28 31.09 -6.27 30.21 -6.27 29.3 C-6.26 26.49 -6.23 23.68 -6.21 20.86 C-6.2 18.95 -6.19 17.05 -6.18 15.14 C-6.16 10.46 -6.12 5.79 -6.08 1.11 C-3.8 -0.03 -2.54 -0.01 0 0 Z " fill="#000100" transform="translate(943.08251953125,1128.886474609375)"/>
<path d="M0 0 C0.86 -0 1.71 -0 2.59 -0 C4.4 -0 6.22 -0 8.03 0 C10.8 0.01 13.58 0 16.35 -0 C18.11 -0 19.87 -0 21.62 0 C22.46 -0 23.29 -0 24.14 -0.01 C27.47 0.01 30.2 0.07 33.38 1.13 C33.4 7.24 33.42 13.34 33.43 19.45 C33.44 21.53 33.45 23.61 33.45 25.69 C33.47 28.67 33.47 31.65 33.48 34.63 C33.48 35.56 33.49 36.5 33.49 37.46 C33.49 38.32 33.49 39.19 33.49 40.07 C33.49 40.83 33.5 41.6 33.5 42.38 C33.38 44.13 33.38 44.13 32.38 45.13 C29.29 45.23 26.22 45.27 23.13 45.27 C22.2 45.27 21.27 45.27 20.32 45.27 C18.35 45.27 16.38 45.27 14.41 45.26 C11.39 45.26 8.37 45.26 5.35 45.27 C3.44 45.27 1.54 45.27 -0.37 45.27 C-1.74 45.27 -1.74 45.27 -3.13 45.27 C-9.51 45.25 -9.51 45.25 -10.62 44.13 C-10.71 42.78 -10.74 41.43 -10.73 40.07 C-10.73 39.21 -10.73 38.35 -10.73 37.46 C-10.73 36.53 -10.72 35.59 -10.72 34.63 C-10.72 33.68 -10.72 32.72 -10.71 31.74 C-10.71 28.68 -10.7 25.63 -10.68 22.57 C-10.68 20.5 -10.67 18.44 -10.67 16.37 C-10.66 11.29 -10.64 6.21 -10.62 1.13 C-7.32 -0.52 -3.63 -0.01 0 0 Z " fill="#000100" transform="translate(692.62109375,1128.8671875)"/>
<path d="M0 0 C5.94 -0.05 11.89 -0.09 17.83 -0.11 C19.86 -0.12 21.88 -0.13 23.9 -0.15 C26.81 -0.18 29.71 -0.19 32.62 -0.2 C33.53 -0.21 34.43 -0.22 35.37 -0.23 C36.21 -0.23 37.05 -0.23 37.92 -0.23 C39.03 -0.23 39.03 -0.23 40.17 -0.24 C42 0 42 0 44 2 C44.24 3.83 44.24 3.83 44.23 6.08 C44.23 6.92 44.23 7.76 44.23 8.63 C44.22 9.54 44.21 10.45 44.2 11.38 C44.19 12.31 44.19 13.24 44.19 14.2 C44.18 17.17 44.15 20.15 44.12 23.12 C44.11 25.14 44.11 27.15 44.1 29.17 C44.08 34.11 44.04 39.06 44 44 C37.89 44.02 31.79 44.04 25.68 44.05 C23.6 44.06 21.53 44.07 19.45 44.08 C16.47 44.09 13.48 44.09 10.5 44.1 C9.1 44.11 9.1 44.11 7.67 44.11 C6.38 44.11 6.38 44.11 5.06 44.11 C4.3 44.12 3.54 44.12 2.75 44.12 C1 44 1 44 0 43 C-0.09 41.65 -0.12 40.29 -0.11 38.94 C-0.11 38.08 -0.11 37.22 -0.11 36.33 C-0.11 35.4 -0.1 34.46 -0.1 33.5 C-0.1 32.54 -0.09 31.59 -0.09 30.61 C-0.09 27.55 -0.08 24.49 -0.06 21.44 C-0.06 19.37 -0.05 17.3 -0.05 15.24 C-0.04 10.16 -0.02 5.08 0 0 Z " fill="#000100" transform="translate(191,682)"/>
<path d="M0 0 C10.33 -0.06 10.33 -0.06 20.88 -0.12 C23.05 -0.14 25.22 -0.16 27.46 -0.18 C29.18 -0.19 30.9 -0.19 32.62 -0.2 C33.51 -0.21 34.41 -0.22 35.33 -0.23 C36.19 -0.23 37.04 -0.23 37.92 -0.23 C39.03 -0.23 39.03 -0.23 40.17 -0.24 C42 0 42 0 44 2 C44.24 3.87 44.24 3.87 44.23 6.17 C44.23 7.04 44.23 7.9 44.23 8.78 C44.22 9.71 44.21 10.64 44.2 11.6 C44.19 12.55 44.19 13.5 44.19 14.49 C44.18 17.53 44.15 20.58 44.12 23.62 C44.11 25.69 44.11 27.75 44.1 29.81 C44.08 34.88 44.04 39.94 44 45 C40.56 46.72 36.61 45.99 32.84 45.88 C32.03 45.86 31.23 45.84 30.4 45.82 C27.39 45.74 24.38 45.65 21.38 45.56 C11.29 45.28 11.29 45.28 1 45 C0.67 30.15 0.34 15.3 0 0 Z " fill="#000100" transform="translate(596,1129)"/>
<path d="M0 0 C10.33 -0.06 10.33 -0.06 20.88 -0.12 C23.05 -0.14 25.22 -0.16 27.46 -0.18 C29.18 -0.19 30.9 -0.19 32.62 -0.2 C33.51 -0.21 34.41 -0.22 35.33 -0.23 C36.19 -0.23 37.04 -0.23 37.92 -0.23 C39.03 -0.23 39.03 -0.23 40.17 -0.24 C42 0 42 0 44 2 C44.24 3.83 44.24 3.83 44.23 6.08 C44.23 6.93 44.23 7.79 44.23 8.67 C44.21 10.01 44.21 10.01 44.2 11.38 C44.19 12.21 44.19 13.03 44.19 13.88 C44.18 16.96 44.15 20.04 44.12 23.12 C44.08 30.01 44.04 36.9 44 44 C29.81 44 15.62 44 1 44 C0.67 29.48 0.34 14.96 0 0 Z " fill="#000100" transform="translate(276,682)"/>
<path d="M0 0 C0.33 0 0.66 0 1 0 C1 111.87 1 223.74 1 339 C0.67 339 0.34 339 0 339 C0 227.13 0 115.26 0 0 Z " fill="#000100" transform="translate(509,916)"/>
<path d="M0 0 C54.45 0 108.9 0 165 0 C165 0.33 165 0.66 165 1 C110.55 1 56.1 1 0 1 C0 0.67 0 0.34 0 0 Z " fill="#FDFDFD" transform="translate(1069,470)"/>
<path d="M0 0 C47.85 0 95.7 0 145 0 C145 0.33 145 0.66 145 1 C97.15 1 49.3 1 0 1 C0 0.67 0 0.34 0 0 Z " fill="#FDFDFD" transform="translate(493,640)"/>
<path d="M0 0 C45.54 0 91.08 0 138 0 C138 0.33 138 0.66 138 1 C92.46 1 46.92 1 0 1 C0 0.67 0 0.34 0 0 Z " fill="#FDFDFD" transform="translate(912,640)"/>
<path d="M0 0 C0.33 0 0.66 0 1 0 C1 19.14 1 38.28 1 58 C0.67 58 0.34 58 0 58 C0 38.86 0 19.72 0 0 Z " fill="#000100" transform="translate(232,45)"/>
<path d="M0 0 C0.33 0 0.66 0 1 0 C1 12.87 1 25.74 1 39 C0.67 39 0.34 39 0 39 C0 26.13 0 13.26 0 0 Z " fill="#000100" transform="translate(189,811)"/>
<path d="M0 0 C0.33 0 0.66 0 1 0 C1 12.87 1 25.74 1 39 C0.67 39 0.34 39 0 39 C0 26.13 0 13.26 0 0 Z " fill="#000100" transform="translate(189,684)"/>
<path d="M0 0 C0.33 0 0.66 0 1 0 C1 4.95 1 9.9 1 15 C0.67 15 0.34 15 0 15 C0 10.05 0 5.1 0 0 Z " fill="#FDFDFD" transform="translate(640,1147)"/>
<path d="M0 0 C0.33 0 0.66 0 1 0 C1 4.95 1 9.9 1 15 C0.67 15 0.34 15 0 15 C0 10.05 0 5.1 0 0 Z " fill="#FDFDFD" transform="translate(640,612)"/>
<path d="M0 0 C0.33 0 0.66 0 1 0 C1 4.95 1 9.9 1 15 C0.67 15 0.34 15 0 15 C0 10.05 0 5.1 0 0 Z " fill="#FDFDFD" transform="translate(640,507)"/>
<path d="M0 0 C0.33 0 0.66 0 1 0 C1 3.96 1 7.92 1 12 C0.67 12 0.34 12 0 12 C0 8.04 0 4.08 0 0 Z " fill="#FDFDFD" transform="translate(960,827)"/>
<path d="M0 0 C0.33 0 0.66 0 1 0 C1 3.96 1 7.92 1 12 C0.67 12 0.34 12 0 12 C0 8.04 0 4.08 0 0 Z " fill="#FDFDFD" transform="translate(320,827)"/>
<path d="M0 0 C0.33 0 0.66 0 1 0 C1 3.96 1 7.92 1 12 C0.67 12 0.34 12 0 12 C0 8.04 0 4.08 0 0 Z " fill="#FDFDFD" transform="translate(875,742)"/>
<path d="M0 0 C0.33 0 0.66 0 1 0 C1 3.3 1 6.6 1 10 C0.67 10 0.34 10 0 10 C0 6.7 0 3.4 0 0 Z " fill="#FDFDFD" transform="translate(555,941)"/>
<path d="M0 0 C0.33 0 0.66 0 1 0 C1 3.3 1 6.6 1 10 C0.67 10 0.34 10 0 10 C0 6.7 0 3.4 0 0 Z " fill="#FDFDFD" transform="translate(320,700)"/>
<path d="M0 0 C0.33 0 0.66 0 1 0 C1 3.3 1 6.6 1 10 C0.67 10 0.34 10 0 10 C0 6.7 0 3.4 0 0 Z " fill="#FDFDFD" transform="translate(235,700)"/>
<path d="M0 0 C0.33 0 0.66 0 1 0 C1 3.3 1 6.6 1 10 C0.67 10 0.34 10 0 10 C0 6.7 0 3.4 0 0 Z " fill="#FDFDFD" transform="translate(150,621)"/>
<path d="" fill="#FDFDFD" transform="translate(0,0)"/>
<path d="" fill="#000100" transform="translate(0,0)"/>
<path d="" fill="#000100" transform="translate(0,0)"/>
<path d="" fill="#000100" transform="translate(0,0)"/>
<path d="M0 0 C2 1 2 1 2 1 Z " fill="#000100" transform="translate(44,399)"/>
<path d="" fill="#000100" transform="translate(0,0)"/>
<path d="" fill="#000100" transform="translate(0,0)"/>
<path d="" fill="#FDFDFD" transform="translate(0,0)"/>
<path d="" fill="#777777" transform="translate(0,0)"/>
<path d="" fill="#000100" transform="translate(0,0)"/>
<path d="" fill="#777777" transform="translate(0,0)"/>
<path d="" fill="#000100" transform="translate(0,0)"/>
<path d="" fill="#000100" transform="translate(0,0)"/>
<path d="" fill="#E2E2E2" transform="translate(0,0)"/>
<path d="" fill="#E2E2E2" transform="translate(0,0)"/>
<path d="" fill="#E2E2E2" transform="translate(0,0)"/>
<path d="" fill="#E2E2E2" transform="translate(0,0)"/>
<path d="" fill="#000100" transform="translate(0,0)"/>
<path d="" fill="#000100" transform="translate(0,0)"/>
<path d="" fill="#FDFDFD" transform="translate(0,0)"/>
<path d="" fill="#000100" transform="translate(0,0)"/>
<path d="" fill="#FDFDFD" transform="translate(0,0)"/>
<path d="" fill="#000100" transform="translate(0,0)"/>
<path d="" fill="#777777" transform="translate(0,0)"/>
<path d="" fill="#000100" transform="translate(0,0)"/>
<path d="" fill="#000100" transform="translate(0,0)"/>
<path d="" fill="#777777" transform="translate(0,0)"/>
<path d="" fill="#000100" transform="translate(0,0)"/>
<path d="" fill="#777777" transform="translate(0,0)"/>
<path d="" fill="#000100" transform="translate(0,0)"/>
<path d="" fill="#000100" transform="translate(0,0)"/>
<path d="" fill="#000100" transform="translate(0,0)"/>
<path d="" fill="#777777" transform="translate(0,0)"/>
<path d="" fill="#000100" transform="translate(0,0)"/>
<path d="" fill="#000100" transform="translate(0,0)"/>
<path d="" fill="#000100" transform="translate(0,0)"/>
<path d="" fill="#FDFDFD" transform="translate(0,0)"/>
<path d="" fill="#000100" transform="translate(0,0)"/>
<path d="" fill="#000100" transform="translate(0,0)"/>
<path d="" fill="#000100" transform="translate(0,0)"/>
<path d="" fill="#000100" transform="translate(0,0)"/>
<path d="" fill="#000100" transform="translate(0,0)"/>
<path d="" fill="#000100" transform="translate(0,0)"/>
<path d="" fill="#000100" transform="translate(0,0)"/>
<path d="" fill="#000100" transform="translate(0,0)"/>
<path d="" fill="#000100" transform="translate(0,0)"/>
<path d="" fill="#000100" transform="translate(0,0)"/>
<path d="" fill="#FDFDFD" transform="translate(0,0)"/>
<path d="" fill="#FDFDFD" transform="translate(0,0)"/>
<path d="" fill="#FDFDFD" transform="translate(0,0)"/>
<path d="" fill="#FDFDFD" transform="translate(0,0)"/>
<path d="" fill="#777777" transform="translate(0,0)"/>
<path d="" fill="#777777" transform="translate(0,0)"/>
<path d="" fill="#000100" transform="translate(0,0)"/>
<path d="" fill="#777777" transform="translate(0,0)"/>
<path d="" fill="#777777" transform="translate(0,0)"/>
<path d="" fill="#000100" transform="translate(0,0)"/>
<path d="" fill="#000100" transform="translate(0,0)"/>
<path d="" fill="#000100" transform="translate(0,0)"/>
<path d="" fill="#000100" transform="translate(0,0)"/>
<path d="" fill="#000100" transform="translate(0,0)"/>
<path d="" fill="#000100" transform="translate(0,0)"/>
<path d="" fill="#000100" transform="translate(0,0)"/>
<path d="" fill="#000100" transform="translate(0,0)"/>
<path d="" fill="#000100" transform="translate(0,0)"/>
<path d="" fill="#000100" transform="translate(0,0)"/>
<path d="" fill="#000100" transform="translate(0,0)"/>
<path d="" fill="#000100" transform="translate(0,0)"/>
<path d="" fill="#000100" transform="translate(0,0)"/>
<path d="" fill="#000100" transform="translate(0,0)"/>
<path d="" fill="#000100" transform="translate(0,0)"/>
<path d="" fill="#FDFDFD" transform="translate(0,0)"/>
<path d="" fill="#000100" transform="translate(0,0)"/>
<path d="" fill="#FDFDFD" transform="translate(0,0)"/>
<path d="" fill="#000100" transform="translate(0,0)"/>
<path d="" fill="#000100" transform="translate(0,0)"/>
<path d="" fill="#777777" transform="translate(0,0)"/>
<path d="" fill="#FDFDFD" transform="translate(0,0)"/>
<path d="" fill="#000100" transform="translate(0,0)"/>
<path d="" fill="#000100" transform="translate(0,0)"/>
<path d="" fill="#000100" transform="translate(0,0)"/>
<path d="" fill="#000100" transform="translate(0,0)"/>
<path d="" fill="#000100" transform="translate(0,0)"/>
<path d="" fill="#000100" transform="translate(0,0)"/>
<path d="" fill="#000100" transform="translate(0,0)"/>
<path d="" fill="#000100" transform="translate(0,0)"/>
<path d="" fill="#000100" transform="translate(0,0)"/>
<path d="" fill="#000100" transform="translate(0,0)"/>
<path d="" fill="#000100" transform="translate(0,0)"/>
<path d="" fill="#000100" transform="translate(0,0)"/>
<path d="" fill="#000100" transform="translate(0,0)"/>
<path d="" fill="#000100" transform="translate(0,0)"/>
</svg>
